%TF.GenerationSoftware,KiCad,Pcbnew,(7.0.0)*%
%TF.CreationDate,2023-08-10T18:16:06+02:00*%
%TF.ProjectId,SiboorVoronExt,5369626f-6f72-4566-9f72-6f6e4578742e,rev?*%
%TF.SameCoordinates,Original*%
%TF.FileFunction,Soldermask,Top*%
%TF.FilePolarity,Negative*%
%FSLAX46Y46*%
G04 Gerber Fmt 4.6, Leading zero omitted, Abs format (unit mm)*
G04 Created by KiCad (PCBNEW (7.0.0)) date 2023-08-10 18:16:06*
%MOMM*%
%LPD*%
G01*
G04 APERTURE LIST*
G04 Aperture macros list*
%AMRoundRect*
0 Rectangle with rounded corners*
0 $1 Rounding radius*
0 $2 $3 $4 $5 $6 $7 $8 $9 X,Y pos of 4 corners*
0 Add a 4 corners polygon primitive as box body*
4,1,4,$2,$3,$4,$5,$6,$7,$8,$9,$2,$3,0*
0 Add four circle primitives for the rounded corners*
1,1,$1+$1,$2,$3*
1,1,$1+$1,$4,$5*
1,1,$1+$1,$6,$7*
1,1,$1+$1,$8,$9*
0 Add four rect primitives between the rounded corners*
20,1,$1+$1,$2,$3,$4,$5,0*
20,1,$1+$1,$4,$5,$6,$7,0*
20,1,$1+$1,$6,$7,$8,$9,0*
20,1,$1+$1,$8,$9,$2,$3,0*%
G04 Aperture macros list end*
%ADD10RoundRect,0.250000X1.100000X0.900000X-1.100000X0.900000X-1.100000X-0.900000X1.100000X-0.900000X0*%
%ADD11RoundRect,0.237500X-0.237500X0.250000X-0.237500X-0.250000X0.237500X-0.250000X0.237500X0.250000X0*%
%ADD12RoundRect,0.237500X0.250000X0.237500X-0.250000X0.237500X-0.250000X-0.237500X0.250000X-0.237500X0*%
%ADD13RoundRect,0.250000X-0.600000X-0.750000X0.600000X-0.750000X0.600000X0.750000X-0.600000X0.750000X0*%
%ADD14O,1.700000X2.000000*%
%ADD15R,1.700000X1.700000*%
%ADD16O,1.700000X1.700000*%
%ADD17RoundRect,0.250000X0.650000X-0.412500X0.650000X0.412500X-0.650000X0.412500X-0.650000X-0.412500X0*%
%ADD18RoundRect,0.162500X-0.637500X-0.162500X0.637500X-0.162500X0.637500X0.162500X-0.637500X0.162500X0*%
%ADD19RoundRect,0.237500X0.287500X0.237500X-0.287500X0.237500X-0.287500X-0.237500X0.287500X-0.237500X0*%
%ADD20RoundRect,0.237500X-0.250000X-0.237500X0.250000X-0.237500X0.250000X0.237500X-0.250000X0.237500X0*%
%ADD21RoundRect,0.237500X0.300000X0.237500X-0.300000X0.237500X-0.300000X-0.237500X0.300000X-0.237500X0*%
%ADD22RoundRect,0.250000X-0.350000X-0.450000X0.350000X-0.450000X0.350000X0.450000X-0.350000X0.450000X0*%
%ADD23RoundRect,0.237500X-0.237500X0.300000X-0.237500X-0.300000X0.237500X-0.300000X0.237500X0.300000X0*%
%ADD24RoundRect,0.225000X-0.375000X0.225000X-0.375000X-0.225000X0.375000X-0.225000X0.375000X0.225000X0*%
%ADD25RoundRect,0.237500X0.237500X-0.250000X0.237500X0.250000X-0.237500X0.250000X-0.237500X-0.250000X0*%
%ADD26RoundRect,0.250000X-0.600000X-0.725000X0.600000X-0.725000X0.600000X0.725000X-0.600000X0.725000X0*%
%ADD27O,1.700000X1.950000*%
%ADD28RoundRect,0.325000X0.775000X0.325000X-0.775000X0.325000X-0.775000X-0.325000X0.775000X-0.325000X0*%
%ADD29RoundRect,0.500000X0.500000X1.400000X-0.500000X1.400000X-0.500000X-1.400000X0.500000X-1.400000X0*%
%ADD30RoundRect,0.250000X-0.412500X-0.650000X0.412500X-0.650000X0.412500X0.650000X-0.412500X0.650000X0*%
%ADD31RoundRect,0.250000X-0.650000X0.412500X-0.650000X-0.412500X0.650000X-0.412500X0.650000X0.412500X0*%
%ADD32RoundRect,0.250000X0.475000X-0.337500X0.475000X0.337500X-0.475000X0.337500X-0.475000X-0.337500X0*%
%ADD33RoundRect,0.250000X0.350000X0.450000X-0.350000X0.450000X-0.350000X-0.450000X0.350000X-0.450000X0*%
%ADD34RoundRect,0.750000X0.750000X3.000000X-0.750000X3.000000X-0.750000X-3.000000X0.750000X-3.000000X0*%
%ADD35RoundRect,0.250000X0.750000X-0.600000X0.750000X0.600000X-0.750000X0.600000X-0.750000X-0.600000X0*%
%ADD36O,2.000000X1.700000*%
%ADD37RoundRect,0.200000X-0.500000X-0.200000X0.500000X-0.200000X0.500000X0.200000X-0.500000X0.200000X0*%
%ADD38RoundRect,0.150000X0.150000X-0.825000X0.150000X0.825000X-0.150000X0.825000X-0.150000X-0.825000X0*%
%ADD39RoundRect,0.572500X0.927500X-0.572500X0.927500X0.572500X-0.927500X0.572500X-0.927500X-0.572500X0*%
%ADD40RoundRect,0.250000X0.450000X-0.350000X0.450000X0.350000X-0.450000X0.350000X-0.450000X-0.350000X0*%
G04 APERTURE END LIST*
D10*
%TO.C,D2*%
X22850000Y-18000000D03*
X18050000Y-18000000D03*
%TD*%
D11*
%TO.C,R8*%
X12600000Y-16475000D03*
X12600000Y-18300000D03*
%TD*%
D12*
%TO.C,R11*%
X21062500Y-22000000D03*
X19237500Y-22000000D03*
%TD*%
D11*
%TO.C,R12*%
X11000000Y-16475000D03*
X11000000Y-18300000D03*
%TD*%
D13*
%TO.C,FAN1*%
X14850000Y-25675000D03*
D14*
X17349999Y-25674999D03*
%TD*%
D15*
%TO.C,EXP1*%
X15174999Y-3324999D03*
D16*
X15174999Y-5864999D03*
X12634999Y-3324999D03*
X12634999Y-5864999D03*
X10094999Y-3324999D03*
X10094999Y-5864999D03*
X7554999Y-3324999D03*
X7554999Y-5864999D03*
X5014999Y-3324999D03*
X5014999Y-5864999D03*
%TD*%
D17*
%TO.C,C5*%
X32800000Y-12425000D03*
X32800000Y-9300000D03*
%TD*%
D18*
%TO.C,U1*%
X35687000Y-20050000D03*
X35687000Y-21000000D03*
X35687000Y-21950000D03*
X38735000Y-21950000D03*
X38735000Y-20050000D03*
%TD*%
D19*
%TO.C,D4*%
X37850000Y-8600000D03*
X36100000Y-8600000D03*
%TD*%
D17*
%TO.C,C7*%
X12700000Y-12325000D03*
X12700000Y-9200000D03*
%TD*%
D20*
%TO.C,R13*%
X13462000Y-14478000D03*
X15287000Y-14478000D03*
%TD*%
D15*
%TO.C,EXP2*%
X35699999Y-3299999D03*
D16*
X35699999Y-5839999D03*
X33159999Y-3299999D03*
X33159999Y-5839999D03*
X30619999Y-3299999D03*
X30619999Y-5839999D03*
X28079999Y-3299999D03*
X28079999Y-5839999D03*
X25539999Y-3299999D03*
X25539999Y-5839999D03*
%TD*%
D21*
%TO.C,C3*%
X27362500Y-9050000D03*
X25637500Y-9050000D03*
%TD*%
D22*
%TO.C,R6*%
X19300000Y-4700000D03*
X21300000Y-4700000D03*
%TD*%
D19*
%TO.C,D6*%
X5950000Y-18025000D03*
X4200000Y-18025000D03*
%TD*%
D23*
%TO.C,C4*%
X31000000Y-20237500D03*
X31000000Y-21962500D03*
%TD*%
D24*
%TO.C,D1*%
X14500000Y-16004000D03*
X14500000Y-19304000D03*
%TD*%
D25*
%TO.C,R9*%
X33976000Y-22025000D03*
X33976000Y-20200000D03*
%TD*%
%TO.C,R16*%
X7900000Y-19800000D03*
X7900000Y-17975000D03*
%TD*%
D26*
%TO.C,RGB2*%
X3886400Y-25675000D03*
D27*
X6386399Y-25674999D03*
X8886399Y-25674999D03*
%TD*%
D20*
%TO.C,R4*%
X25787500Y-18100000D03*
X27612500Y-18100000D03*
%TD*%
D12*
%TO.C,R15*%
X9350000Y-9000000D03*
X7525000Y-9000000D03*
%TD*%
D21*
%TO.C,C1*%
X27900000Y-19700000D03*
X26175000Y-19700000D03*
%TD*%
D19*
%TO.C,D3*%
X17100000Y-22050000D03*
X15350000Y-22050000D03*
%TD*%
D28*
%TO.C,U4*%
X8700000Y-15850000D03*
X8700000Y-13550000D03*
D29*
X1900000Y-13550000D03*
D28*
X8700000Y-11150000D03*
%TD*%
D30*
%TO.C,C2*%
X26137500Y-21600000D03*
X29262500Y-21600000D03*
%TD*%
D18*
%TO.C,U2*%
X2876000Y-19975000D03*
X2876000Y-20925000D03*
X2876000Y-21875000D03*
X5924000Y-21875000D03*
X5924000Y-19975000D03*
%TD*%
D31*
%TO.C,C6*%
X32800000Y-14537500D03*
X32800000Y-17662500D03*
%TD*%
D32*
%TO.C,C9*%
X1561600Y-8986600D03*
X1561600Y-6911600D03*
%TD*%
D20*
%TO.C,R1*%
X22587500Y-22000000D03*
X24412500Y-22000000D03*
%TD*%
D19*
%TO.C,D5*%
X5975000Y-9000000D03*
X4225000Y-9000000D03*
%TD*%
D11*
%TO.C,R14*%
X39450000Y-6787500D03*
X39450000Y-8612500D03*
%TD*%
D26*
%TO.C,RGB1*%
X31746400Y-25675000D03*
D27*
X34246399Y-25674999D03*
X36746399Y-25674999D03*
%TD*%
D33*
%TO.C,R7*%
X21300000Y-6700000D03*
X19300000Y-6700000D03*
%TD*%
D34*
%TO.C,L2*%
X22950000Y-11700000D03*
X17950000Y-11700000D03*
%TD*%
D35*
%TO.C,24V1*%
X36825000Y-15000000D03*
D36*
X36824999Y-12499999D03*
%TD*%
D25*
%TO.C,R10*%
X950000Y-22025000D03*
X950000Y-20200000D03*
%TD*%
D37*
%TO.C,Q1*%
X10062000Y-20050000D03*
X10062000Y-21950000D03*
X12862000Y-21000000D03*
%TD*%
D12*
%TO.C,R2*%
X30825000Y-9050000D03*
X29000000Y-9050000D03*
%TD*%
D38*
%TO.C,U3*%
X26995000Y-16025000D03*
X28265000Y-16025000D03*
X29535000Y-16025000D03*
X30805000Y-16025000D03*
X30805000Y-11075000D03*
X29535000Y-11075000D03*
X28265000Y-11075000D03*
X26995000Y-11075000D03*
D39*
X28900000Y-13550000D03*
%TD*%
D20*
%TO.C,R3*%
X29075000Y-18100000D03*
X30900000Y-18100000D03*
%TD*%
D13*
%TO.C,TH1*%
X23300000Y-25650000D03*
D14*
X25799999Y-25649999D03*
%TD*%
D11*
%TO.C,R5*%
X32500000Y-20187500D03*
X32500000Y-22012500D03*
%TD*%
D40*
%TO.C,C8*%
X15000000Y-12000000D03*
X15000000Y-10000000D03*
%TD*%
M02*
