%TF.GenerationSoftware,KiCad,Pcbnew,(7.0.0)*%
%TF.CreationDate,2023-08-10T18:16:06+02:00*%
%TF.ProjectId,SiboorVoronExt,5369626f-6f72-4566-9f72-6f6e4578742e,rev?*%
%TF.SameCoordinates,Original*%
%TF.FileFunction,Legend,Top*%
%TF.FilePolarity,Positive*%
%FSLAX46Y46*%
G04 Gerber Fmt 4.6, Leading zero omitted, Abs format (unit mm)*
G04 Created by KiCad (PCBNEW (7.0.0)) date 2023-08-10 18:16:06*
%MOMM*%
%LPD*%
G01*
G04 APERTURE LIST*
G04 Aperture macros list*
%AMRoundRect*
0 Rectangle with rounded corners*
0 $1 Rounding radius*
0 $2 $3 $4 $5 $6 $7 $8 $9 X,Y pos of 4 corners*
0 Add a 4 corners polygon primitive as box body*
4,1,4,$2,$3,$4,$5,$6,$7,$8,$9,$2,$3,0*
0 Add four circle primitives for the rounded corners*
1,1,$1+$1,$2,$3*
1,1,$1+$1,$4,$5*
1,1,$1+$1,$6,$7*
1,1,$1+$1,$8,$9*
0 Add four rect primitives between the rounded corners*
20,1,$1+$1,$2,$3,$4,$5,0*
20,1,$1+$1,$4,$5,$6,$7,0*
20,1,$1+$1,$6,$7,$8,$9,0*
20,1,$1+$1,$8,$9,$2,$3,0*%
G04 Aperture macros list end*
%ADD10C,0.150000*%
%ADD11C,0.120000*%
%ADD12RoundRect,0.250000X1.100000X0.900000X-1.100000X0.900000X-1.100000X-0.900000X1.100000X-0.900000X0*%
%ADD13RoundRect,0.237500X-0.237500X0.250000X-0.237500X-0.250000X0.237500X-0.250000X0.237500X0.250000X0*%
%ADD14RoundRect,0.237500X0.250000X0.237500X-0.250000X0.237500X-0.250000X-0.237500X0.250000X-0.237500X0*%
%ADD15RoundRect,0.250000X-0.600000X-0.750000X0.600000X-0.750000X0.600000X0.750000X-0.600000X0.750000X0*%
%ADD16O,1.700000X2.000000*%
%ADD17R,1.700000X1.700000*%
%ADD18O,1.700000X1.700000*%
%ADD19RoundRect,0.250000X0.650000X-0.412500X0.650000X0.412500X-0.650000X0.412500X-0.650000X-0.412500X0*%
%ADD20RoundRect,0.162500X-0.637500X-0.162500X0.637500X-0.162500X0.637500X0.162500X-0.637500X0.162500X0*%
%ADD21RoundRect,0.237500X0.287500X0.237500X-0.287500X0.237500X-0.287500X-0.237500X0.287500X-0.237500X0*%
%ADD22RoundRect,0.237500X-0.250000X-0.237500X0.250000X-0.237500X0.250000X0.237500X-0.250000X0.237500X0*%
%ADD23RoundRect,0.237500X0.300000X0.237500X-0.300000X0.237500X-0.300000X-0.237500X0.300000X-0.237500X0*%
%ADD24RoundRect,0.250000X-0.350000X-0.450000X0.350000X-0.450000X0.350000X0.450000X-0.350000X0.450000X0*%
%ADD25RoundRect,0.237500X-0.237500X0.300000X-0.237500X-0.300000X0.237500X-0.300000X0.237500X0.300000X0*%
%ADD26RoundRect,0.225000X-0.375000X0.225000X-0.375000X-0.225000X0.375000X-0.225000X0.375000X0.225000X0*%
%ADD27RoundRect,0.237500X0.237500X-0.250000X0.237500X0.250000X-0.237500X0.250000X-0.237500X-0.250000X0*%
%ADD28RoundRect,0.250000X-0.600000X-0.725000X0.600000X-0.725000X0.600000X0.725000X-0.600000X0.725000X0*%
%ADD29O,1.700000X1.950000*%
%ADD30RoundRect,0.325000X0.775000X0.325000X-0.775000X0.325000X-0.775000X-0.325000X0.775000X-0.325000X0*%
%ADD31RoundRect,0.500000X0.500000X1.400000X-0.500000X1.400000X-0.500000X-1.400000X0.500000X-1.400000X0*%
%ADD32RoundRect,0.250000X-0.412500X-0.650000X0.412500X-0.650000X0.412500X0.650000X-0.412500X0.650000X0*%
%ADD33RoundRect,0.250000X-0.650000X0.412500X-0.650000X-0.412500X0.650000X-0.412500X0.650000X0.412500X0*%
%ADD34RoundRect,0.250000X0.475000X-0.337500X0.475000X0.337500X-0.475000X0.337500X-0.475000X-0.337500X0*%
%ADD35RoundRect,0.250000X0.350000X0.450000X-0.350000X0.450000X-0.350000X-0.450000X0.350000X-0.450000X0*%
%ADD36RoundRect,0.750000X0.750000X3.000000X-0.750000X3.000000X-0.750000X-3.000000X0.750000X-3.000000X0*%
%ADD37RoundRect,0.250000X0.750000X-0.600000X0.750000X0.600000X-0.750000X0.600000X-0.750000X-0.600000X0*%
%ADD38O,2.000000X1.700000*%
%ADD39RoundRect,0.200000X-0.500000X-0.200000X0.500000X-0.200000X0.500000X0.200000X-0.500000X0.200000X0*%
%ADD40RoundRect,0.150000X0.150000X-0.825000X0.150000X0.825000X-0.150000X0.825000X-0.150000X-0.825000X0*%
%ADD41RoundRect,0.572500X0.927500X-0.572500X0.927500X0.572500X-0.927500X0.572500X-0.927500X-0.572500X0*%
%ADD42RoundRect,0.250000X0.450000X-0.350000X0.450000X0.350000X-0.450000X0.350000X-0.450000X-0.350000X0*%
G04 APERTURE END LIST*
D10*
%TO.C,EXP1*%
X2218571Y-6041666D02*
X2218571Y-5708333D01*
X2742380Y-5565476D02*
X2742380Y-6041666D01*
X2742380Y-6041666D02*
X1742380Y-6041666D01*
X1742380Y-6041666D02*
X1742380Y-5565476D01*
X1742380Y-5232142D02*
X2742380Y-4565476D01*
X1742380Y-4565476D02*
X2742380Y-5232142D01*
X2742380Y-4184523D02*
X1742380Y-4184523D01*
X1742380Y-4184523D02*
X1742380Y-3803571D01*
X1742380Y-3803571D02*
X1790000Y-3708333D01*
X1790000Y-3708333D02*
X1837619Y-3660714D01*
X1837619Y-3660714D02*
X1932857Y-3613095D01*
X1932857Y-3613095D02*
X2075714Y-3613095D01*
X2075714Y-3613095D02*
X2170952Y-3660714D01*
X2170952Y-3660714D02*
X2218571Y-3708333D01*
X2218571Y-3708333D02*
X2266190Y-3803571D01*
X2266190Y-3803571D02*
X2266190Y-4184523D01*
X2742380Y-2660714D02*
X2742380Y-3232142D01*
X2742380Y-2946428D02*
X1742380Y-2946428D01*
X1742380Y-2946428D02*
X1885238Y-3041666D01*
X1885238Y-3041666D02*
X1980476Y-3136904D01*
X1980476Y-3136904D02*
X2028095Y-3232142D01*
%TO.C,C5*%
X31222142Y-11029166D02*
X31269761Y-11076785D01*
X31269761Y-11076785D02*
X31317380Y-11219642D01*
X31317380Y-11219642D02*
X31317380Y-11314880D01*
X31317380Y-11314880D02*
X31269761Y-11457737D01*
X31269761Y-11457737D02*
X31174523Y-11552975D01*
X31174523Y-11552975D02*
X31079285Y-11600594D01*
X31079285Y-11600594D02*
X30888809Y-11648213D01*
X30888809Y-11648213D02*
X30745952Y-11648213D01*
X30745952Y-11648213D02*
X30555476Y-11600594D01*
X30555476Y-11600594D02*
X30460238Y-11552975D01*
X30460238Y-11552975D02*
X30365000Y-11457737D01*
X30365000Y-11457737D02*
X30317380Y-11314880D01*
X30317380Y-11314880D02*
X30317380Y-11219642D01*
X30317380Y-11219642D02*
X30365000Y-11076785D01*
X30365000Y-11076785D02*
X30412619Y-11029166D01*
X30317380Y-10124404D02*
X30317380Y-10600594D01*
X30317380Y-10600594D02*
X30793571Y-10648213D01*
X30793571Y-10648213D02*
X30745952Y-10600594D01*
X30745952Y-10600594D02*
X30698333Y-10505356D01*
X30698333Y-10505356D02*
X30698333Y-10267261D01*
X30698333Y-10267261D02*
X30745952Y-10172023D01*
X30745952Y-10172023D02*
X30793571Y-10124404D01*
X30793571Y-10124404D02*
X30888809Y-10076785D01*
X30888809Y-10076785D02*
X31126904Y-10076785D01*
X31126904Y-10076785D02*
X31222142Y-10124404D01*
X31222142Y-10124404D02*
X31269761Y-10172023D01*
X31269761Y-10172023D02*
X31317380Y-10267261D01*
X31317380Y-10267261D02*
X31317380Y-10505356D01*
X31317380Y-10505356D02*
X31269761Y-10600594D01*
X31269761Y-10600594D02*
X31222142Y-10648213D01*
%TO.C,EXP2*%
X38093571Y-6266666D02*
X38093571Y-5933333D01*
X38617380Y-5790476D02*
X38617380Y-6266666D01*
X38617380Y-6266666D02*
X37617380Y-6266666D01*
X37617380Y-6266666D02*
X37617380Y-5790476D01*
X37617380Y-5457142D02*
X38617380Y-4790476D01*
X37617380Y-4790476D02*
X38617380Y-5457142D01*
X38617380Y-4409523D02*
X37617380Y-4409523D01*
X37617380Y-4409523D02*
X37617380Y-4028571D01*
X37617380Y-4028571D02*
X37665000Y-3933333D01*
X37665000Y-3933333D02*
X37712619Y-3885714D01*
X37712619Y-3885714D02*
X37807857Y-3838095D01*
X37807857Y-3838095D02*
X37950714Y-3838095D01*
X37950714Y-3838095D02*
X38045952Y-3885714D01*
X38045952Y-3885714D02*
X38093571Y-3933333D01*
X38093571Y-3933333D02*
X38141190Y-4028571D01*
X38141190Y-4028571D02*
X38141190Y-4409523D01*
X37712619Y-3457142D02*
X37665000Y-3409523D01*
X37665000Y-3409523D02*
X37617380Y-3314285D01*
X37617380Y-3314285D02*
X37617380Y-3076190D01*
X37617380Y-3076190D02*
X37665000Y-2980952D01*
X37665000Y-2980952D02*
X37712619Y-2933333D01*
X37712619Y-2933333D02*
X37807857Y-2885714D01*
X37807857Y-2885714D02*
X37903095Y-2885714D01*
X37903095Y-2885714D02*
X38045952Y-2933333D01*
X38045952Y-2933333D02*
X38617380Y-3504761D01*
X38617380Y-3504761D02*
X38617380Y-2885714D01*
%TO.C,D1*%
X16867380Y-18392094D02*
X15867380Y-18392094D01*
X15867380Y-18392094D02*
X15867380Y-18153999D01*
X15867380Y-18153999D02*
X15915000Y-18011142D01*
X15915000Y-18011142D02*
X16010238Y-17915904D01*
X16010238Y-17915904D02*
X16105476Y-17868285D01*
X16105476Y-17868285D02*
X16295952Y-17820666D01*
X16295952Y-17820666D02*
X16438809Y-17820666D01*
X16438809Y-17820666D02*
X16629285Y-17868285D01*
X16629285Y-17868285D02*
X16724523Y-17915904D01*
X16724523Y-17915904D02*
X16819761Y-18011142D01*
X16819761Y-18011142D02*
X16867380Y-18153999D01*
X16867380Y-18153999D02*
X16867380Y-18392094D01*
X16867380Y-16868285D02*
X16867380Y-17439713D01*
X16867380Y-17153999D02*
X15867380Y-17153999D01*
X15867380Y-17153999D02*
X16010238Y-17249237D01*
X16010238Y-17249237D02*
X16105476Y-17344475D01*
X16105476Y-17344475D02*
X16153095Y-17439713D01*
D11*
%TO.C,D2*%
X24450000Y-20150000D02*
X24450000Y-15850000D01*
X24450000Y-20150000D02*
X17750000Y-20150000D01*
X24450000Y-15850000D02*
X17750000Y-15850000D01*
%TO.C,R8*%
X13122500Y-17132776D02*
X13122500Y-17642224D01*
X12077500Y-17132776D02*
X12077500Y-17642224D01*
%TO.C,R11*%
X20404724Y-22522500D02*
X19895276Y-22522500D01*
X20404724Y-21477500D02*
X19895276Y-21477500D01*
%TO.C,R12*%
X11522500Y-17132776D02*
X11522500Y-17642224D01*
X10477500Y-17132776D02*
X10477500Y-17642224D01*
%TO.C,FAN1*%
X12000000Y-22925000D02*
X12000000Y-24175000D01*
X12290000Y-23215000D02*
X12290000Y-29185000D01*
X12290000Y-29185000D02*
X19910000Y-29185000D01*
X12300000Y-23225000D02*
X12300000Y-23975000D01*
X12300000Y-23975000D02*
X14100000Y-23975000D01*
X12300000Y-25475000D02*
X13050000Y-25475000D01*
X13050000Y-25475000D02*
X13050000Y-28425000D01*
X13050000Y-28425000D02*
X16100000Y-28425000D01*
X13250000Y-22925000D02*
X12000000Y-22925000D01*
X14100000Y-23225000D02*
X12300000Y-23225000D01*
X14100000Y-23975000D02*
X14100000Y-23225000D01*
X15600000Y-23225000D02*
X15600000Y-23975000D01*
X15600000Y-23975000D02*
X16600000Y-23975000D01*
X16600000Y-23225000D02*
X15600000Y-23225000D01*
X16600000Y-23975000D02*
X16600000Y-23225000D01*
X18100000Y-23225000D02*
X18100000Y-23975000D01*
X18100000Y-23975000D02*
X19900000Y-23975000D01*
X19150000Y-25475000D02*
X19150000Y-28425000D01*
X19150000Y-28425000D02*
X16100000Y-28425000D01*
X19900000Y-23225000D02*
X18100000Y-23225000D01*
X19900000Y-23975000D02*
X19900000Y-23225000D01*
X19900000Y-25475000D02*
X19150000Y-25475000D01*
X19910000Y-23215000D02*
X12290000Y-23215000D01*
X19910000Y-29185000D02*
X19910000Y-23215000D01*
%TO.C,EXP1*%
X16505000Y-1995000D02*
X16505000Y-3325000D01*
X15175000Y-1995000D02*
X16505000Y-1995000D01*
X13905000Y-1995000D02*
X3685000Y-1995000D01*
X13905000Y-1995000D02*
X13905000Y-4595000D01*
X3685000Y-1995000D02*
X3685000Y-7195000D01*
X16505000Y-4595000D02*
X16505000Y-7195000D01*
X13905000Y-4595000D02*
X16505000Y-4595000D01*
X16505000Y-7195000D02*
X3685000Y-7195000D01*
%TO.C,C5*%
X31890000Y-11573752D02*
X31890000Y-10151248D01*
X33710000Y-11573752D02*
X33710000Y-10151248D01*
%TO.C,U1*%
X36311000Y-22610000D02*
X38111000Y-22610000D01*
X38111000Y-19390000D02*
X35661000Y-19390000D01*
%TO.C,D4*%
X38635000Y-9335000D02*
X38635000Y-7865000D01*
X38635000Y-7865000D02*
X36175000Y-7865000D01*
X36175000Y-9335000D02*
X38635000Y-9335000D01*
%TO.C,C7*%
X11790000Y-11473752D02*
X11790000Y-10051248D01*
X13610000Y-11473752D02*
X13610000Y-10051248D01*
%TO.C,R13*%
X14119776Y-13955500D02*
X14629224Y-13955500D01*
X14119776Y-15000500D02*
X14629224Y-15000500D01*
%TO.C,EXP2*%
X37030000Y-1970000D02*
X37030000Y-3300000D01*
X35700000Y-1970000D02*
X37030000Y-1970000D01*
X34430000Y-1970000D02*
X24210000Y-1970000D01*
X34430000Y-1970000D02*
X34430000Y-4570000D01*
X24210000Y-1970000D02*
X24210000Y-7170000D01*
X37030000Y-4570000D02*
X37030000Y-7170000D01*
X34430000Y-4570000D02*
X37030000Y-4570000D01*
X37030000Y-7170000D02*
X24210000Y-7170000D01*
%TO.C,C3*%
X26646267Y-9560000D02*
X26353733Y-9560000D01*
X26646267Y-8540000D02*
X26353733Y-8540000D01*
%TO.C,R6*%
X20072936Y-3965000D02*
X20527064Y-3965000D01*
X20072936Y-5435000D02*
X20527064Y-5435000D01*
%TO.C,D6*%
X6735000Y-18760000D02*
X6735000Y-17290000D01*
X6735000Y-17290000D02*
X4275000Y-17290000D01*
X4275000Y-18760000D02*
X6735000Y-18760000D01*
%TO.C,C4*%
X31510000Y-20953733D02*
X31510000Y-21246267D01*
X30490000Y-20953733D02*
X30490000Y-21246267D01*
%TO.C,D1*%
X15500000Y-15294000D02*
X13500000Y-15294000D01*
X15500000Y-15294000D02*
X15500000Y-19304000D01*
X13500000Y-15294000D02*
X13500000Y-19304000D01*
%TO.C,R9*%
X33453500Y-21367224D02*
X33453500Y-20857776D01*
X34498500Y-21367224D02*
X34498500Y-20857776D01*
%TO.C,R16*%
X7377500Y-19142224D02*
X7377500Y-18632776D01*
X8422500Y-19142224D02*
X8422500Y-18632776D01*
%TO.C,RGB2*%
X1036400Y-22925000D02*
X1036400Y-24175000D01*
X1326400Y-23215000D02*
X1326400Y-29185000D01*
X1326400Y-29185000D02*
X11446400Y-29185000D01*
X1336400Y-23225000D02*
X1336400Y-23975000D01*
X1336400Y-23975000D02*
X3136400Y-23975000D01*
X1336400Y-25475000D02*
X2086400Y-25475000D01*
X2086400Y-25475000D02*
X2086400Y-28425000D01*
X2086400Y-28425000D02*
X6386400Y-28425000D01*
X2286400Y-22925000D02*
X1036400Y-22925000D01*
X3136400Y-23225000D02*
X1336400Y-23225000D01*
X3136400Y-23975000D02*
X3136400Y-23225000D01*
X4636400Y-23225000D02*
X4636400Y-23975000D01*
X4636400Y-23975000D02*
X8136400Y-23975000D01*
X8136400Y-23225000D02*
X4636400Y-23225000D01*
X8136400Y-23975000D02*
X8136400Y-23225000D01*
X9636400Y-23225000D02*
X9636400Y-23975000D01*
X9636400Y-23975000D02*
X11436400Y-23975000D01*
X10686400Y-25475000D02*
X10686400Y-28425000D01*
X10686400Y-28425000D02*
X6386400Y-28425000D01*
X11436400Y-23225000D02*
X9636400Y-23225000D01*
X11436400Y-23975000D02*
X11436400Y-23225000D01*
X11436400Y-25475000D02*
X10686400Y-25475000D01*
X11446400Y-23215000D02*
X1326400Y-23215000D01*
X11446400Y-29185000D02*
X11446400Y-23215000D01*
%TO.C,R4*%
X26445276Y-17577500D02*
X26954724Y-17577500D01*
X26445276Y-18622500D02*
X26954724Y-18622500D01*
%TO.C,R15*%
X8692224Y-9522500D02*
X8182776Y-9522500D01*
X8692224Y-8477500D02*
X8182776Y-8477500D01*
%TO.C,C1*%
X27183767Y-20210000D02*
X26891233Y-20210000D01*
X27183767Y-19190000D02*
X26891233Y-19190000D01*
%TO.C,D3*%
X17885000Y-22785000D02*
X17885000Y-21315000D01*
X17885000Y-21315000D02*
X15425000Y-21315000D01*
X15425000Y-22785000D02*
X17885000Y-22785000D01*
%TO.C,U4*%
X9400000Y-16960000D02*
X3390000Y-16960000D01*
X7150000Y-10140000D02*
X3390000Y-10140000D01*
X3390000Y-16960000D02*
X3390000Y-15700000D01*
X3390000Y-10140000D02*
X3390000Y-11400000D01*
%TO.C,C2*%
X26988748Y-20690000D02*
X28411252Y-20690000D01*
X26988748Y-22510000D02*
X28411252Y-22510000D01*
%TO.C,U2*%
X3500000Y-22535000D02*
X5300000Y-22535000D01*
X5300000Y-19315000D02*
X2850000Y-19315000D01*
%TO.C,C6*%
X33710000Y-15388748D02*
X33710000Y-16811252D01*
X31890000Y-15388748D02*
X31890000Y-16811252D01*
%TO.C,C9*%
X826600Y-8210352D02*
X826600Y-7687848D01*
X2296600Y-8210352D02*
X2296600Y-7687848D01*
%TO.C,R1*%
X23245276Y-21477500D02*
X23754724Y-21477500D01*
X23245276Y-22522500D02*
X23754724Y-22522500D01*
%TO.C,D5*%
X6760000Y-9735000D02*
X6760000Y-8265000D01*
X6760000Y-8265000D02*
X4300000Y-8265000D01*
X4300000Y-9735000D02*
X6760000Y-9735000D01*
%TO.C,R14*%
X39972500Y-7445276D02*
X39972500Y-7954724D01*
X38927500Y-7445276D02*
X38927500Y-7954724D01*
%TO.C,RGB1*%
X28896400Y-22925000D02*
X28896400Y-24175000D01*
X29186400Y-23215000D02*
X29186400Y-29185000D01*
X29186400Y-29185000D02*
X39306400Y-29185000D01*
X29196400Y-23225000D02*
X29196400Y-23975000D01*
X29196400Y-23975000D02*
X30996400Y-23975000D01*
X29196400Y-25475000D02*
X29946400Y-25475000D01*
X29946400Y-25475000D02*
X29946400Y-28425000D01*
X29946400Y-28425000D02*
X34246400Y-28425000D01*
X30146400Y-22925000D02*
X28896400Y-22925000D01*
X30996400Y-23225000D02*
X29196400Y-23225000D01*
X30996400Y-23975000D02*
X30996400Y-23225000D01*
X32496400Y-23225000D02*
X32496400Y-23975000D01*
X32496400Y-23975000D02*
X35996400Y-23975000D01*
X35996400Y-23225000D02*
X32496400Y-23225000D01*
X35996400Y-23975000D02*
X35996400Y-23225000D01*
X37496400Y-23225000D02*
X37496400Y-23975000D01*
X37496400Y-23975000D02*
X39296400Y-23975000D01*
X38546400Y-25475000D02*
X38546400Y-28425000D01*
X38546400Y-28425000D02*
X34246400Y-28425000D01*
X39296400Y-23225000D02*
X37496400Y-23225000D01*
X39296400Y-23975000D02*
X39296400Y-23225000D01*
X39296400Y-25475000D02*
X38546400Y-25475000D01*
X39306400Y-23215000D02*
X29186400Y-23215000D01*
X39306400Y-29185000D02*
X39306400Y-23215000D01*
%TO.C,R7*%
X20527064Y-7435000D02*
X20072936Y-7435000D01*
X20527064Y-5965000D02*
X20072936Y-5965000D01*
%TO.C,L2*%
X20850000Y-15500000D02*
X20000000Y-15500000D01*
X20850000Y-7900000D02*
X20050000Y-7900000D01*
%TO.C,24V1*%
X34075000Y-17850000D02*
X35325000Y-17850000D01*
X34365000Y-17560000D02*
X40335000Y-17560000D01*
X40335000Y-17560000D02*
X40335000Y-9940000D01*
X34375000Y-17550000D02*
X35125000Y-17550000D01*
X35125000Y-17550000D02*
X35125000Y-15750000D01*
X36625000Y-17550000D02*
X36625000Y-16800000D01*
X36625000Y-16800000D02*
X39575000Y-16800000D01*
X39575000Y-16800000D02*
X39575000Y-13750000D01*
X34075000Y-16600000D02*
X34075000Y-17850000D01*
X34375000Y-15750000D02*
X34375000Y-17550000D01*
X35125000Y-15750000D02*
X34375000Y-15750000D01*
X34375000Y-14250000D02*
X35125000Y-14250000D01*
X35125000Y-14250000D02*
X35125000Y-13250000D01*
X34375000Y-13250000D02*
X34375000Y-14250000D01*
X35125000Y-13250000D02*
X34375000Y-13250000D01*
X34375000Y-11750000D02*
X35125000Y-11750000D01*
X35125000Y-11750000D02*
X35125000Y-9950000D01*
X36625000Y-10700000D02*
X39575000Y-10700000D01*
X39575000Y-10700000D02*
X39575000Y-13750000D01*
X34375000Y-9950000D02*
X34375000Y-11750000D01*
X35125000Y-9950000D02*
X34375000Y-9950000D01*
X36625000Y-9950000D02*
X36625000Y-10700000D01*
X34365000Y-9940000D02*
X34365000Y-17560000D01*
X40335000Y-9940000D02*
X34365000Y-9940000D01*
%TO.C,R10*%
X427500Y-21367224D02*
X427500Y-20857776D01*
X1472500Y-21367224D02*
X1472500Y-20857776D01*
%TO.C,Q1*%
X12222000Y-19420000D02*
X9062000Y-19420000D01*
X12222000Y-19420000D02*
X12222000Y-20350000D01*
X12222000Y-22580000D02*
X10762000Y-22580000D01*
X12222000Y-22580000D02*
X12222000Y-21650000D01*
%TO.C,R2*%
X30167224Y-9572500D02*
X29657776Y-9572500D01*
X30167224Y-8527500D02*
X29657776Y-8527500D01*
%TO.C,U3*%
X26340000Y-13550000D02*
X26340000Y-17000000D01*
X26340000Y-13550000D02*
X26340000Y-11600000D01*
X31460000Y-13550000D02*
X31460000Y-15500000D01*
X31460000Y-13550000D02*
X31460000Y-11600000D01*
%TO.C,R3*%
X29732776Y-17577500D02*
X30242224Y-17577500D01*
X29732776Y-18622500D02*
X30242224Y-18622500D01*
%TO.C,TH1*%
X20450000Y-22900000D02*
X20450000Y-24150000D01*
X20740000Y-23190000D02*
X20740000Y-29160000D01*
X20740000Y-29160000D02*
X28360000Y-29160000D01*
X20750000Y-23200000D02*
X20750000Y-23950000D01*
X20750000Y-23950000D02*
X22550000Y-23950000D01*
X20750000Y-25450000D02*
X21500000Y-25450000D01*
X21500000Y-25450000D02*
X21500000Y-28400000D01*
X21500000Y-28400000D02*
X24550000Y-28400000D01*
X21700000Y-22900000D02*
X20450000Y-22900000D01*
X22550000Y-23200000D02*
X20750000Y-23200000D01*
X22550000Y-23950000D02*
X22550000Y-23200000D01*
X24050000Y-23200000D02*
X24050000Y-23950000D01*
X24050000Y-23950000D02*
X25050000Y-23950000D01*
X25050000Y-23200000D02*
X24050000Y-23200000D01*
X25050000Y-23950000D02*
X25050000Y-23200000D01*
X26550000Y-23200000D02*
X26550000Y-23950000D01*
X26550000Y-23950000D02*
X28350000Y-23950000D01*
X27600000Y-25450000D02*
X27600000Y-28400000D01*
X27600000Y-28400000D02*
X24550000Y-28400000D01*
X28350000Y-23200000D02*
X26550000Y-23200000D01*
X28350000Y-23950000D02*
X28350000Y-23200000D01*
X28350000Y-25450000D02*
X27600000Y-25450000D01*
X28360000Y-23190000D02*
X20740000Y-23190000D01*
X28360000Y-29160000D02*
X28360000Y-23190000D01*
%TO.C,R5*%
X33022500Y-20845276D02*
X33022500Y-21354724D01*
X31977500Y-20845276D02*
X31977500Y-21354724D01*
%TO.C,C8*%
X14265000Y-11227064D02*
X14265000Y-10772936D01*
X15735000Y-11227064D02*
X15735000Y-10772936D01*
%TD*%
%LPC*%
D12*
%TO.C,D2*%
X22850000Y-18000000D03*
X18050000Y-18000000D03*
%TD*%
D13*
%TO.C,R8*%
X12600000Y-16475000D03*
X12600000Y-18300000D03*
%TD*%
D14*
%TO.C,R11*%
X21062500Y-22000000D03*
X19237500Y-22000000D03*
%TD*%
D13*
%TO.C,R12*%
X11000000Y-16475000D03*
X11000000Y-18300000D03*
%TD*%
D15*
%TO.C,FAN1*%
X14850000Y-25675000D03*
D16*
X17349999Y-25674999D03*
%TD*%
D17*
%TO.C,EXP1*%
X15174999Y-3324999D03*
D18*
X15174999Y-5864999D03*
X12634999Y-3324999D03*
X12634999Y-5864999D03*
X10094999Y-3324999D03*
X10094999Y-5864999D03*
X7554999Y-3324999D03*
X7554999Y-5864999D03*
X5014999Y-3324999D03*
X5014999Y-5864999D03*
%TD*%
D19*
%TO.C,C5*%
X32800000Y-12425000D03*
X32800000Y-9300000D03*
%TD*%
D20*
%TO.C,U1*%
X35687000Y-20050000D03*
X35687000Y-21000000D03*
X35687000Y-21950000D03*
X38735000Y-21950000D03*
X38735000Y-20050000D03*
%TD*%
D21*
%TO.C,D4*%
X37850000Y-8600000D03*
X36100000Y-8600000D03*
%TD*%
D19*
%TO.C,C7*%
X12700000Y-12325000D03*
X12700000Y-9200000D03*
%TD*%
D22*
%TO.C,R13*%
X13462000Y-14478000D03*
X15287000Y-14478000D03*
%TD*%
D17*
%TO.C,EXP2*%
X35699999Y-3299999D03*
D18*
X35699999Y-5839999D03*
X33159999Y-3299999D03*
X33159999Y-5839999D03*
X30619999Y-3299999D03*
X30619999Y-5839999D03*
X28079999Y-3299999D03*
X28079999Y-5839999D03*
X25539999Y-3299999D03*
X25539999Y-5839999D03*
%TD*%
D23*
%TO.C,C3*%
X27362500Y-9050000D03*
X25637500Y-9050000D03*
%TD*%
D24*
%TO.C,R6*%
X19300000Y-4700000D03*
X21300000Y-4700000D03*
%TD*%
D21*
%TO.C,D6*%
X5950000Y-18025000D03*
X4200000Y-18025000D03*
%TD*%
D25*
%TO.C,C4*%
X31000000Y-20237500D03*
X31000000Y-21962500D03*
%TD*%
D26*
%TO.C,D1*%
X14500000Y-16004000D03*
X14500000Y-19304000D03*
%TD*%
D27*
%TO.C,R9*%
X33976000Y-22025000D03*
X33976000Y-20200000D03*
%TD*%
%TO.C,R16*%
X7900000Y-19800000D03*
X7900000Y-17975000D03*
%TD*%
D28*
%TO.C,RGB2*%
X3886400Y-25675000D03*
D29*
X6386399Y-25674999D03*
X8886399Y-25674999D03*
%TD*%
D22*
%TO.C,R4*%
X25787500Y-18100000D03*
X27612500Y-18100000D03*
%TD*%
D14*
%TO.C,R15*%
X9350000Y-9000000D03*
X7525000Y-9000000D03*
%TD*%
D23*
%TO.C,C1*%
X27900000Y-19700000D03*
X26175000Y-19700000D03*
%TD*%
D21*
%TO.C,D3*%
X17100000Y-22050000D03*
X15350000Y-22050000D03*
%TD*%
D30*
%TO.C,U4*%
X8700000Y-15850000D03*
X8700000Y-13550000D03*
D31*
X1900000Y-13550000D03*
D30*
X8700000Y-11150000D03*
%TD*%
D32*
%TO.C,C2*%
X26137500Y-21600000D03*
X29262500Y-21600000D03*
%TD*%
D20*
%TO.C,U2*%
X2876000Y-19975000D03*
X2876000Y-20925000D03*
X2876000Y-21875000D03*
X5924000Y-21875000D03*
X5924000Y-19975000D03*
%TD*%
D33*
%TO.C,C6*%
X32800000Y-14537500D03*
X32800000Y-17662500D03*
%TD*%
D34*
%TO.C,C9*%
X1561600Y-8986600D03*
X1561600Y-6911600D03*
%TD*%
D22*
%TO.C,R1*%
X22587500Y-22000000D03*
X24412500Y-22000000D03*
%TD*%
D21*
%TO.C,D5*%
X5975000Y-9000000D03*
X4225000Y-9000000D03*
%TD*%
D13*
%TO.C,R14*%
X39450000Y-6787500D03*
X39450000Y-8612500D03*
%TD*%
D28*
%TO.C,RGB1*%
X31746400Y-25675000D03*
D29*
X34246399Y-25674999D03*
X36746399Y-25674999D03*
%TD*%
D35*
%TO.C,R7*%
X21300000Y-6700000D03*
X19300000Y-6700000D03*
%TD*%
D36*
%TO.C,L2*%
X22950000Y-11700000D03*
X17950000Y-11700000D03*
%TD*%
D37*
%TO.C,24V1*%
X36825000Y-15000000D03*
D38*
X36824999Y-12499999D03*
%TD*%
D27*
%TO.C,R10*%
X950000Y-22025000D03*
X950000Y-20200000D03*
%TD*%
D39*
%TO.C,Q1*%
X10062000Y-20050000D03*
X10062000Y-21950000D03*
X12862000Y-21000000D03*
%TD*%
D14*
%TO.C,R2*%
X30825000Y-9050000D03*
X29000000Y-9050000D03*
%TD*%
D40*
%TO.C,U3*%
X26995000Y-16025000D03*
X28265000Y-16025000D03*
X29535000Y-16025000D03*
X30805000Y-16025000D03*
X30805000Y-11075000D03*
X29535000Y-11075000D03*
X28265000Y-11075000D03*
X26995000Y-11075000D03*
D41*
X28900000Y-13550000D03*
%TD*%
D22*
%TO.C,R3*%
X29075000Y-18100000D03*
X30900000Y-18100000D03*
%TD*%
D15*
%TO.C,TH1*%
X23300000Y-25650000D03*
D16*
X25799999Y-25649999D03*
%TD*%
D13*
%TO.C,R5*%
X32500000Y-20187500D03*
X32500000Y-22012500D03*
%TD*%
D42*
%TO.C,C8*%
X15000000Y-12000000D03*
X15000000Y-10000000D03*
%TD*%
M02*
