M48
; DRILL file {KiCad (7.0.0)} date Thu Aug 10 18:16:06 2023
; FORMAT={-:-/ absolute / inch / decimal}
; #@! TF.CreationDate,2023-08-10T18:16:06+02:00
; #@! TF.GenerationSoftware,Kicad,Pcbnew,(7.0.0)
; #@! TF.FileFunction,Plated,1,2,PTH
FMAT,2
INCH
; #@! TA.AperFunction,Plated,PTH,ViaDrill
T1C0.0118
; #@! TA.AperFunction,Plated,PTH,ComponentDrill
T2C0.0118
; #@! TA.AperFunction,Plated,PTH,ComponentDrill
T3C0.0374
; #@! TA.AperFunction,Plated,PTH,ComponentDrill
T4C0.0394
%
G90
G05
T1
X0.0236Y-0.2047
X0.0256Y-0.1142
X0.0276Y-1.0079
X0.0374Y-0.7165
X0.0945Y-0.6555
X0.1004Y-0.0295
X0.1319Y-1.1555
X0.1654Y-0.7096
X0.1713Y-0.4724
X0.2416Y-0.6108
X0.3119Y-0.8669
X0.315Y-0.4449
X0.3406Y-0.4449
X0.3583Y-0.2913
X0.3661Y-0.4449
X0.4035Y-0.0276
X0.4055Y-0.5787
X0.4134Y-0.3602
X0.4195Y-0.9337
X0.4567Y-1.0689
X0.4567Y-1.1575
X0.4724Y-0.3189
X0.4803Y-0.7756
X0.5Y-0.5079
X0.5Y-0.6181
X0.5276Y-0.3189
X0.5276Y-0.5079
X0.5433Y-0.9409
X0.5472Y-0.2047
X0.5472Y-0.8701
X0.5512Y-0.2913
X0.5531Y-0.655
X0.5551Y-0.5079
X0.5827Y-0.5079
X0.5984Y-0.3228
X0.69Y-0.795
X0.7126Y-0.2441
X0.7579Y-0.8287
X0.7618Y-0.9823
X0.8012Y-0.0256
X0.8031Y-0.6417
X0.8071Y-0.3504
X0.8127Y-0.7902
X0.8268Y-1.0807
X0.8661Y-0.9311
X0.8957Y-0.2717
X0.9173Y-0.2244
X0.9606Y-0.7933
X1.0039Y-0.4429
X1.0551Y-0.2874
X1.0925Y-1.1575
X1.1142Y-0.4094
X1.1142Y-0.435
X1.1142Y-0.4606
X1.1299Y-0.0295
X1.1831Y-0.2953
X1.2128Y-0.6309
X1.2874Y-0.752
X1.3228Y-0.7106
X1.3504Y-0.3504
X1.3543Y-0.5394
X1.4409Y-0.0295
X1.4469Y-0.6909
X1.5131Y-1.1504
X1.5276Y-0.3976
X1.535Y-0.735
X1.5669Y-0.1909
X1.5709Y-1.0787
T2
X1.0984Y-0.5079
X1.0984Y-0.5591
X1.1378Y-0.5079
X1.1378Y-0.5591
X1.1772Y-0.5079
X1.1772Y-0.5591
T3
X0.153Y-1.0108
X0.2514Y-1.0108
X0.3499Y-1.0108
X1.2499Y-1.0108
X1.3483Y-1.0108
X1.4467Y-1.0108
T4
X0.1974Y-0.1309
X0.1974Y-0.2309
X0.2974Y-0.1309
X0.2974Y-0.2309
X0.3974Y-0.1309
X0.3974Y-0.2309
X0.4974Y-0.1309
X0.4974Y-0.2309
X0.5846Y-1.0108
X0.5974Y-0.1309
X0.5974Y-0.2309
X0.6831Y-1.0108
X0.9173Y-1.0098
X1.0055Y-0.1299
X1.0055Y-0.2299
X1.0157Y-1.0098
X1.1055Y-0.1299
X1.1055Y-0.2299
X1.2055Y-0.1299
X1.2055Y-0.2299
X1.3055Y-0.1299
X1.3055Y-0.2299
X1.4055Y-0.1299
X1.4055Y-0.2299
X1.4498Y-0.4921
X1.4498Y-0.5906
T0
M30
