%TF.GenerationSoftware,KiCad,Pcbnew,(7.0.0)*%
%TF.CreationDate,2023-08-10T18:16:06+02:00*%
%TF.ProjectId,SiboorVoronExt,5369626f-6f72-4566-9f72-6f6e4578742e,rev?*%
%TF.SameCoordinates,Original*%
%TF.FileFunction,Copper,L2,Bot*%
%TF.FilePolarity,Positive*%
%FSLAX46Y46*%
G04 Gerber Fmt 4.6, Leading zero omitted, Abs format (unit mm)*
G04 Created by KiCad (PCBNEW (7.0.0)) date 2023-08-10 18:16:06*
%MOMM*%
%LPD*%
G01*
G04 APERTURE LIST*
G04 Aperture macros list*
%AMRoundRect*
0 Rectangle with rounded corners*
0 $1 Rounding radius*
0 $2 $3 $4 $5 $6 $7 $8 $9 X,Y pos of 4 corners*
0 Add a 4 corners polygon primitive as box body*
4,1,4,$2,$3,$4,$5,$6,$7,$8,$9,$2,$3,0*
0 Add four circle primitives for the rounded corners*
1,1,$1+$1,$2,$3*
1,1,$1+$1,$4,$5*
1,1,$1+$1,$6,$7*
1,1,$1+$1,$8,$9*
0 Add four rect primitives between the rounded corners*
20,1,$1+$1,$2,$3,$4,$5,0*
20,1,$1+$1,$4,$5,$6,$7,0*
20,1,$1+$1,$6,$7,$8,$9,0*
20,1,$1+$1,$8,$9,$2,$3,0*%
G04 Aperture macros list end*
%TA.AperFunction,ComponentPad*%
%ADD10RoundRect,0.250000X-0.600000X-0.750000X0.600000X-0.750000X0.600000X0.750000X-0.600000X0.750000X0*%
%TD*%
%TA.AperFunction,ComponentPad*%
%ADD11O,1.700000X2.000000*%
%TD*%
%TA.AperFunction,ComponentPad*%
%ADD12R,1.700000X1.700000*%
%TD*%
%TA.AperFunction,ComponentPad*%
%ADD13O,1.700000X1.700000*%
%TD*%
%TA.AperFunction,ComponentPad*%
%ADD14RoundRect,0.250000X-0.600000X-0.725000X0.600000X-0.725000X0.600000X0.725000X-0.600000X0.725000X0*%
%TD*%
%TA.AperFunction,ComponentPad*%
%ADD15O,1.700000X1.950000*%
%TD*%
%TA.AperFunction,ComponentPad*%
%ADD16RoundRect,0.250000X0.750000X-0.600000X0.750000X0.600000X-0.750000X0.600000X-0.750000X-0.600000X0*%
%TD*%
%TA.AperFunction,ComponentPad*%
%ADD17O,2.000000X1.700000*%
%TD*%
%TA.AperFunction,ComponentPad*%
%ADD18C,0.700000*%
%TD*%
%TA.AperFunction,SMDPad,CuDef*%
%ADD19R,2.500000X1.800000*%
%TD*%
%TA.AperFunction,ViaPad*%
%ADD20C,0.600000*%
%TD*%
%TA.AperFunction,Conductor*%
%ADD21C,0.200000*%
%TD*%
%TA.AperFunction,Conductor*%
%ADD22C,1.000000*%
%TD*%
%TA.AperFunction,Conductor*%
%ADD23C,0.250000*%
%TD*%
G04 APERTURE END LIST*
D10*
%TO.P,FAN1,1,Pin_1*%
%TO.N,+24V*%
X14850000Y-25675000D03*
D11*
%TO.P,FAN1,2,Pin_2*%
%TO.N,Net-(D1-A)*%
X17349999Y-25674999D03*
%TD*%
D12*
%TO.P,EXP1,1,Pin_1*%
%TO.N,unconnected-(EXP1-Pin_1-Pad1)*%
X15174999Y-3324999D03*
D13*
%TO.P,EXP1,2,Pin_2*%
%TO.N,unconnected-(EXP1-Pin_2-Pad2)*%
X15174999Y-5864999D03*
%TO.P,EXP1,3,Pin_3*%
%TO.N,unconnected-(EXP1-Pin_3-Pad3)*%
X12634999Y-3324999D03*
%TO.P,EXP1,4,Pin_4*%
%TO.N,unconnected-(EXP1-Pin_4-Pad4)*%
X12634999Y-5864999D03*
%TO.P,EXP1,5,Pin_5*%
%TO.N,RGB2*%
X10094999Y-3324999D03*
%TO.P,EXP1,6,Pin_6*%
%TO.N,unconnected-(EXP1-Pin_6-Pad6)*%
X10094999Y-5864999D03*
%TO.P,EXP1,7,Pin_7*%
%TO.N,unconnected-(EXP1-Pin_7-Pad7)*%
X7554999Y-3324999D03*
%TO.P,EXP1,8,Pin_8*%
%TO.N,unconnected-(EXP1-Pin_8-Pad8)*%
X7554999Y-5864999D03*
%TO.P,EXP1,9,Pin_9*%
%TO.N,GND*%
X5014999Y-3324999D03*
%TO.P,EXP1,10,Pin_10*%
%TO.N,+5V*%
X5014999Y-5864999D03*
%TD*%
D12*
%TO.P,EXP2,1,Pin_1*%
%TO.N,FAN_PWM*%
X35699999Y-3299999D03*
D13*
%TO.P,EXP2,2,Pin_2*%
%TO.N,unconnected-(EXP2-Pin_2-Pad2)*%
X35699999Y-5839999D03*
%TO.P,EXP2,3,Pin_3*%
%TO.N,unconnected-(EXP2-Pin_3-Pad3)*%
X33159999Y-3299999D03*
%TO.P,EXP2,4,Pin_4*%
%TO.N,unconnected-(EXP2-Pin_4-Pad4)*%
X33159999Y-5839999D03*
%TO.P,EXP2,5,Pin_5*%
%TO.N,unconnected-(EXP2-Pin_5-Pad5)*%
X30619999Y-3299999D03*
%TO.P,EXP2,6,Pin_6*%
%TO.N,RGB1*%
X30619999Y-5839999D03*
%TO.P,EXP2,7,Pin_7*%
%TO.N,TH*%
X28079999Y-3299999D03*
%TO.P,EXP2,8,Pin_8*%
%TO.N,unconnected-(EXP2-Pin_8-Pad8)*%
X28079999Y-5839999D03*
%TO.P,EXP2,9,Pin_9*%
%TO.N,GND*%
X25539999Y-3299999D03*
%TO.P,EXP2,10,Pin_10*%
%TO.N,unconnected-(EXP2-Pin_10-Pad10)*%
X25539999Y-5839999D03*
%TD*%
D14*
%TO.P,RGB2,1,Pin_1*%
%TO.N,Net-(RGB2-Pin_1)*%
X3886400Y-25675000D03*
D15*
%TO.P,RGB2,2,Pin_2*%
%TO.N,+5V*%
X6386399Y-25674999D03*
%TO.P,RGB2,3,Pin_3*%
%TO.N,GND*%
X8886399Y-25674999D03*
%TD*%
D14*
%TO.P,RGB1,1,Pin_1*%
%TO.N,Net-(RGB1-Pin_1)*%
X31746400Y-25675000D03*
D15*
%TO.P,RGB1,2,Pin_2*%
%TO.N,+5V*%
X34246399Y-25674999D03*
%TO.P,RGB1,3,Pin_3*%
%TO.N,GND*%
X36746399Y-25674999D03*
%TD*%
D16*
%TO.P,24V1,1,Pin_1*%
%TO.N,+24V*%
X36825000Y-15000000D03*
D17*
%TO.P,24V1,2,Pin_2*%
%TO.N,GND*%
X36824999Y-12499999D03*
%TD*%
D18*
%TO.P,U3,9,EP*%
%TO.N,GND*%
X27900000Y-14200000D03*
X28900000Y-14200000D03*
X29900000Y-14200000D03*
D19*
X28899999Y-13549999D03*
D18*
X27900000Y-12900000D03*
X28900000Y-12900000D03*
X29900000Y-12900000D03*
%TD*%
D10*
%TO.P,TH1,1,Pin_1*%
%TO.N,Net-(TH1-Pin_1)*%
X23300000Y-25650000D03*
D11*
%TO.P,TH1,2,Pin_2*%
%TO.N,GND*%
X25799999Y-25649999D03*
%TD*%
D20*
%TO.N,GND*%
X32700000Y-19100000D03*
X6135944Y-15513828D03*
X18100000Y-6200000D03*
X12000000Y-8100000D03*
X2550000Y-750000D03*
X38800000Y-10100000D03*
X20400000Y-16300000D03*
X3350000Y-29350000D03*
X650000Y-2900000D03*
X34400000Y-13700000D03*
X24400000Y-20150000D03*
X13900000Y-22100000D03*
X38989000Y-18669000D03*
X20350000Y-650000D03*
X2400000Y-16650000D03*
X21000000Y-27450000D03*
X38431498Y-29219390D03*
X11600000Y-29400000D03*
X20500000Y-8900000D03*
X12700000Y-15700000D03*
X10300000Y-14700000D03*
X39900000Y-27400000D03*
X33600000Y-18050000D03*
X7922041Y-22020325D03*
X700000Y-25600000D03*
X19350000Y-24950000D03*
X15200000Y-8200000D03*
X28700000Y-750000D03*
X13900000Y-5200000D03*
X26800000Y-7300000D03*
X4350000Y-12000000D03*
X27750000Y-29400000D03*
X39800000Y-4850000D03*
X36600000Y-750000D03*
X23300000Y-5700000D03*
X11600000Y-27150000D03*
X34300000Y-8900000D03*
X10655864Y-23715295D03*
X13400000Y-8100000D03*
X12200000Y-19700000D03*
X30050000Y-7500000D03*
X17526000Y-20193000D03*
X600000Y-5200000D03*
X25500000Y-11250000D03*
X20643428Y-20070198D03*
X13800000Y-23900000D03*
X10500000Y-9150000D03*
X10250000Y-700000D03*
X36750000Y-17550000D03*
%TO.N,+24V*%
X28300000Y-11050000D03*
X28300000Y-11700000D03*
X28300000Y-10400000D03*
X14049500Y-16637000D03*
%TO.N,+5V*%
X14000000Y-7400000D03*
X14800000Y-12900000D03*
X9300000Y-11300000D03*
X13400000Y-12900000D03*
X14100000Y-12900000D03*
X12700000Y-12900000D03*
X8650000Y-11300000D03*
X9100000Y-7400000D03*
X8000000Y-11300000D03*
%TO.N,+3.3V*%
X19250000Y-21050000D03*
X4200000Y-18025000D03*
%TO.N,RGB2*%
X950000Y-18200000D03*
%TO.N,TH*%
X22000000Y-23650000D03*
%TO.N,Net-(U3-FB)*%
X22750000Y-6900000D03*
X30805000Y-16025000D03*
%TD*%
D21*
%TO.N,+24V*%
X31050000Y-17950000D02*
X33900000Y-15100000D01*
X14049500Y-16637000D02*
X15362500Y-17950000D01*
X33900000Y-15100000D02*
X33900000Y-15000000D01*
D22*
X30000000Y-11100000D02*
X28350000Y-11100000D01*
X28300000Y-10400000D02*
X28300000Y-11700000D01*
X28350000Y-11100000D02*
X28300000Y-11050000D01*
D21*
X15362500Y-17950000D02*
X31050000Y-17950000D01*
D22*
X36825000Y-15000000D02*
X33900000Y-15000000D01*
X33900000Y-15000000D02*
X30000000Y-11100000D01*
%TO.N,+5V*%
X12700000Y-12900000D02*
X14800000Y-12900000D01*
X8000000Y-11300000D02*
X5015000Y-8315000D01*
D21*
X9100000Y-7400000D02*
X13900000Y-7400000D01*
D22*
X11100000Y-11300000D02*
X12700000Y-12900000D01*
X9300000Y-11300000D02*
X11100000Y-11300000D01*
X8000000Y-11300000D02*
X10100000Y-11300000D01*
X5015000Y-8315000D02*
X5015000Y-5865000D01*
D21*
X13900000Y-7400000D02*
X14000000Y-7400000D01*
%TO.N,+3.3V*%
X6350000Y-21050000D02*
X4200000Y-18900000D01*
X4200000Y-18900000D02*
X4200000Y-18025000D01*
X19250000Y-21050000D02*
X6350000Y-21050000D01*
%TO.N,RGB2*%
X950000Y-7750000D02*
X4125000Y-4575000D01*
X4125000Y-4575000D02*
X8845000Y-4575000D01*
X950000Y-18200000D02*
X950000Y-7750000D01*
X8845000Y-4575000D02*
X10095000Y-3325000D01*
D23*
%TO.N,TH*%
X38700000Y-23650000D02*
X39950000Y-22400000D01*
X39950000Y-7050000D02*
X37400000Y-4500000D01*
X22000000Y-23650000D02*
X38700000Y-23650000D01*
X39950000Y-22400000D02*
X39950000Y-7050000D01*
X37400000Y-4500000D02*
X29280000Y-4500000D01*
X29280000Y-4500000D02*
X28080000Y-3300000D01*
D21*
%TO.N,Net-(U3-FB)*%
X30730000Y-16100000D02*
X27000000Y-16100000D01*
X30805000Y-16025000D02*
X30730000Y-16100000D01*
X22750000Y-11850000D02*
X22750000Y-6900000D01*
X27000000Y-16100000D02*
X22750000Y-11850000D01*
%TD*%
%TA.AperFunction,Conductor*%
%TO.N,GND*%
G36*
X37602777Y-300655D02*
G01*
X37896701Y-317162D01*
X37907724Y-318404D01*
X38195224Y-367252D01*
X38206018Y-369715D01*
X38486251Y-450449D01*
X38496722Y-454113D01*
X38766132Y-565707D01*
X38766134Y-565708D01*
X38776136Y-570525D01*
X39031354Y-711578D01*
X39040755Y-717485D01*
X39278575Y-886228D01*
X39287254Y-893149D01*
X39317387Y-920077D01*
X39504697Y-1087467D01*
X39512532Y-1095302D01*
X39606053Y-1199952D01*
X39706850Y-1312745D01*
X39713771Y-1321424D01*
X39882514Y-1559244D01*
X39888421Y-1568645D01*
X40029474Y-1823863D01*
X40034291Y-1833865D01*
X40145884Y-2103273D01*
X40149551Y-2113752D01*
X40207098Y-2313499D01*
X40229505Y-2391278D01*
X40230280Y-2393966D01*
X40232750Y-2404790D01*
X40281594Y-2692270D01*
X40282837Y-2703302D01*
X40299344Y-2997222D01*
X40299500Y-3002773D01*
X40299500Y-6766972D01*
X40285415Y-6817868D01*
X40247169Y-6854282D01*
X40195643Y-6865853D01*
X40145499Y-6849288D01*
X40133734Y-6841427D01*
X40118731Y-6829115D01*
X37620885Y-4331269D01*
X37608573Y-4316266D01*
X37598624Y-4301376D01*
X37575623Y-4286007D01*
X37575622Y-4286006D01*
X37527443Y-4253814D01*
X37507495Y-4240485D01*
X37497931Y-4238582D01*
X37497930Y-4238582D01*
X37427133Y-4224500D01*
X37427126Y-4224497D01*
X37409565Y-4221005D01*
X37409562Y-4221005D01*
X37400000Y-4219103D01*
X37382428Y-4222598D01*
X37363116Y-4224500D01*
X36799500Y-4224500D01*
X36750000Y-4211237D01*
X36713763Y-4175000D01*
X36700500Y-4125500D01*
X36700500Y-2440038D01*
X36700500Y-2435180D01*
X36691767Y-2391278D01*
X36658504Y-2341496D01*
X36646283Y-2333330D01*
X36616828Y-2313649D01*
X36616827Y-2313648D01*
X36608722Y-2308233D01*
X36592432Y-2304992D01*
X36569582Y-2300447D01*
X36569579Y-2300446D01*
X36564820Y-2299500D01*
X34835180Y-2299500D01*
X34830421Y-2300446D01*
X34830417Y-2300447D01*
X34800839Y-2306331D01*
X34800838Y-2306331D01*
X34791278Y-2308233D01*
X34783174Y-2313647D01*
X34783171Y-2313649D01*
X34749605Y-2336077D01*
X34749602Y-2336079D01*
X34741496Y-2341496D01*
X34736079Y-2349602D01*
X34736077Y-2349605D01*
X34713649Y-2383171D01*
X34713647Y-2383174D01*
X34708233Y-2391278D01*
X34706331Y-2400838D01*
X34706331Y-2400839D01*
X34704873Y-2408171D01*
X34699500Y-2435180D01*
X34699500Y-2440038D01*
X34699500Y-4125500D01*
X34686237Y-4175000D01*
X34650000Y-4211237D01*
X34600500Y-4224500D01*
X33887277Y-4224500D01*
X33830272Y-4206441D01*
X33794064Y-4158852D01*
X33791863Y-4099096D01*
X33824472Y-4048972D01*
X33837089Y-4038617D01*
X33870883Y-4010883D01*
X33995910Y-3858538D01*
X34088814Y-3684727D01*
X34146024Y-3496132D01*
X34165341Y-3300000D01*
X34146024Y-3103868D01*
X34088814Y-2915273D01*
X33995910Y-2741462D01*
X33870883Y-2589117D01*
X33752757Y-2492173D01*
X33722295Y-2467173D01*
X33722292Y-2467171D01*
X33718538Y-2464090D01*
X33567149Y-2383171D01*
X33549019Y-2373480D01*
X33549017Y-2373479D01*
X33544727Y-2371186D01*
X33540072Y-2369774D01*
X33540070Y-2369773D01*
X33360788Y-2315388D01*
X33360784Y-2315387D01*
X33356132Y-2313976D01*
X33160000Y-2294659D01*
X33155157Y-2295136D01*
X32968710Y-2313499D01*
X32968708Y-2313499D01*
X32963868Y-2313976D01*
X32959217Y-2315386D01*
X32959211Y-2315388D01*
X32779929Y-2369773D01*
X32779923Y-2369775D01*
X32775273Y-2371186D01*
X32770985Y-2373477D01*
X32770980Y-2373480D01*
X32646460Y-2440038D01*
X32601462Y-2464090D01*
X32597711Y-2467168D01*
X32597704Y-2467173D01*
X32452881Y-2586027D01*
X32452875Y-2586032D01*
X32449117Y-2589117D01*
X32446032Y-2592875D01*
X32446027Y-2592881D01*
X32327173Y-2737704D01*
X32327168Y-2737711D01*
X32324090Y-2741462D01*
X32321798Y-2745749D01*
X32321798Y-2745750D01*
X32233480Y-2910980D01*
X32233477Y-2910985D01*
X32231186Y-2915273D01*
X32229775Y-2919923D01*
X32229773Y-2919929D01*
X32175388Y-3099211D01*
X32175386Y-3099217D01*
X32173976Y-3103868D01*
X32154659Y-3300000D01*
X32173976Y-3496132D01*
X32175387Y-3500784D01*
X32175388Y-3500788D01*
X32229773Y-3680070D01*
X32231186Y-3684727D01*
X32324090Y-3858538D01*
X32327171Y-3862292D01*
X32327173Y-3862295D01*
X32347690Y-3887295D01*
X32449117Y-4010883D01*
X32452881Y-4013972D01*
X32495528Y-4048972D01*
X32528137Y-4099096D01*
X32525936Y-4158852D01*
X32489728Y-4206441D01*
X32432723Y-4224500D01*
X31347277Y-4224500D01*
X31290272Y-4206441D01*
X31254064Y-4158852D01*
X31251863Y-4099096D01*
X31284472Y-4048972D01*
X31297089Y-4038617D01*
X31330883Y-4010883D01*
X31455910Y-3858538D01*
X31548814Y-3684727D01*
X31606024Y-3496132D01*
X31625341Y-3300000D01*
X31606024Y-3103868D01*
X31548814Y-2915273D01*
X31455910Y-2741462D01*
X31330883Y-2589117D01*
X31212757Y-2492173D01*
X31182295Y-2467173D01*
X31182292Y-2467171D01*
X31178538Y-2464090D01*
X31027149Y-2383171D01*
X31009019Y-2373480D01*
X31009017Y-2373479D01*
X31004727Y-2371186D01*
X31000072Y-2369774D01*
X31000070Y-2369773D01*
X30820788Y-2315388D01*
X30820784Y-2315387D01*
X30816132Y-2313976D01*
X30620000Y-2294659D01*
X30615157Y-2295136D01*
X30428710Y-2313499D01*
X30428708Y-2313499D01*
X30423868Y-2313976D01*
X30419217Y-2315386D01*
X30419211Y-2315388D01*
X30239929Y-2369773D01*
X30239923Y-2369775D01*
X30235273Y-2371186D01*
X30230985Y-2373477D01*
X30230980Y-2373480D01*
X30106460Y-2440038D01*
X30061462Y-2464090D01*
X30057711Y-2467168D01*
X30057704Y-2467173D01*
X29912881Y-2586027D01*
X29912875Y-2586032D01*
X29909117Y-2589117D01*
X29906032Y-2592875D01*
X29906027Y-2592881D01*
X29787173Y-2737704D01*
X29787168Y-2737711D01*
X29784090Y-2741462D01*
X29781798Y-2745749D01*
X29781798Y-2745750D01*
X29693480Y-2910980D01*
X29693477Y-2910985D01*
X29691186Y-2915273D01*
X29689775Y-2919923D01*
X29689773Y-2919929D01*
X29635388Y-3099211D01*
X29635386Y-3099217D01*
X29633976Y-3103868D01*
X29614659Y-3300000D01*
X29633976Y-3496132D01*
X29635387Y-3500784D01*
X29635388Y-3500788D01*
X29689773Y-3680070D01*
X29691186Y-3684727D01*
X29784090Y-3858538D01*
X29787171Y-3862292D01*
X29787173Y-3862295D01*
X29807690Y-3887295D01*
X29909117Y-4010883D01*
X29912881Y-4013972D01*
X29955528Y-4048972D01*
X29988137Y-4099096D01*
X29985936Y-4158852D01*
X29949728Y-4206441D01*
X29892723Y-4224500D01*
X29435124Y-4224500D01*
X29397238Y-4216964D01*
X29365120Y-4195504D01*
X29006925Y-3837309D01*
X28984274Y-3802177D01*
X28978141Y-3760828D01*
X28989618Y-3720637D01*
X29008814Y-3684727D01*
X29066024Y-3496132D01*
X29085341Y-3300000D01*
X29066024Y-3103868D01*
X29008814Y-2915273D01*
X28915910Y-2741462D01*
X28790883Y-2589117D01*
X28672757Y-2492173D01*
X28642295Y-2467173D01*
X28642292Y-2467171D01*
X28638538Y-2464090D01*
X28487149Y-2383171D01*
X28469019Y-2373480D01*
X28469017Y-2373479D01*
X28464727Y-2371186D01*
X28460072Y-2369774D01*
X28460070Y-2369773D01*
X28280788Y-2315388D01*
X28280784Y-2315387D01*
X28276132Y-2313976D01*
X28080000Y-2294659D01*
X28075157Y-2295136D01*
X27888710Y-2313499D01*
X27888708Y-2313499D01*
X27883868Y-2313976D01*
X27879217Y-2315386D01*
X27879211Y-2315388D01*
X27699929Y-2369773D01*
X27699923Y-2369775D01*
X27695273Y-2371186D01*
X27690985Y-2373477D01*
X27690980Y-2373480D01*
X27566460Y-2440038D01*
X27521462Y-2464090D01*
X27517711Y-2467168D01*
X27517704Y-2467173D01*
X27372881Y-2586027D01*
X27372875Y-2586032D01*
X27369117Y-2589117D01*
X27366032Y-2592875D01*
X27366027Y-2592881D01*
X27247173Y-2737704D01*
X27247168Y-2737711D01*
X27244090Y-2741462D01*
X27241798Y-2745749D01*
X27241798Y-2745750D01*
X27153480Y-2910980D01*
X27153477Y-2910985D01*
X27151186Y-2915273D01*
X27149775Y-2919923D01*
X27149773Y-2919929D01*
X27095388Y-3099211D01*
X27095386Y-3099217D01*
X27093976Y-3103868D01*
X27074659Y-3300000D01*
X27093976Y-3496132D01*
X27095387Y-3500784D01*
X27095388Y-3500788D01*
X27149773Y-3680070D01*
X27151186Y-3684727D01*
X27244090Y-3858538D01*
X27247171Y-3862292D01*
X27247173Y-3862295D01*
X27267690Y-3887295D01*
X27369117Y-4010883D01*
X27521462Y-4135910D01*
X27695273Y-4228814D01*
X27883868Y-4286024D01*
X28080000Y-4305341D01*
X28276132Y-4286024D01*
X28464727Y-4228814D01*
X28500637Y-4209618D01*
X28540828Y-4198141D01*
X28582177Y-4204274D01*
X28617309Y-4226925D01*
X29059112Y-4668728D01*
X29071422Y-4683729D01*
X29075956Y-4690515D01*
X29075960Y-4690519D01*
X29081376Y-4698624D01*
X29089479Y-4704038D01*
X29089481Y-4704040D01*
X29104376Y-4713992D01*
X29102262Y-4717154D01*
X29102265Y-4717155D01*
X29104378Y-4713994D01*
X29172505Y-4759515D01*
X29280000Y-4780897D01*
X29297571Y-4777401D01*
X29316884Y-4775500D01*
X30093894Y-4775500D01*
X30143954Y-4789089D01*
X30180271Y-4826126D01*
X30192875Y-4876444D01*
X30178305Y-4926227D01*
X30140562Y-4961810D01*
X30065750Y-5001797D01*
X30065742Y-5001802D01*
X30061462Y-5004090D01*
X30057711Y-5007168D01*
X30057704Y-5007173D01*
X29912881Y-5126027D01*
X29912875Y-5126032D01*
X29909117Y-5129117D01*
X29906032Y-5132875D01*
X29906027Y-5132881D01*
X29787173Y-5277704D01*
X29787168Y-5277711D01*
X29784090Y-5281462D01*
X29781798Y-5285749D01*
X29781798Y-5285750D01*
X29693480Y-5450980D01*
X29693477Y-5450985D01*
X29691186Y-5455273D01*
X29689775Y-5459923D01*
X29689773Y-5459929D01*
X29635388Y-5639211D01*
X29635386Y-5639217D01*
X29633976Y-5643868D01*
X29614659Y-5840000D01*
X29633976Y-6036132D01*
X29635387Y-6040784D01*
X29635388Y-6040788D01*
X29642972Y-6065788D01*
X29691186Y-6224727D01*
X29784090Y-6398538D01*
X29787171Y-6402292D01*
X29787173Y-6402295D01*
X29827550Y-6451494D01*
X29909117Y-6550883D01*
X30061462Y-6675910D01*
X30235273Y-6768814D01*
X30423868Y-6826024D01*
X30620000Y-6845341D01*
X30816132Y-6826024D01*
X31004727Y-6768814D01*
X31178538Y-6675910D01*
X31330883Y-6550883D01*
X31455910Y-6398538D01*
X31548814Y-6224727D01*
X31606024Y-6036132D01*
X31625341Y-5840000D01*
X31606024Y-5643868D01*
X31548814Y-5455273D01*
X31455910Y-5281462D01*
X31330883Y-5129117D01*
X31212757Y-5032173D01*
X31182295Y-5007173D01*
X31182292Y-5007171D01*
X31178538Y-5004090D01*
X31174250Y-5001798D01*
X31174249Y-5001797D01*
X31099438Y-4961810D01*
X31061695Y-4926227D01*
X31047125Y-4876444D01*
X31059729Y-4826126D01*
X31096046Y-4789089D01*
X31146106Y-4775500D01*
X32633894Y-4775500D01*
X32683954Y-4789089D01*
X32720271Y-4826126D01*
X32732875Y-4876444D01*
X32718305Y-4926227D01*
X32680562Y-4961810D01*
X32605750Y-5001797D01*
X32605742Y-5001802D01*
X32601462Y-5004090D01*
X32597711Y-5007168D01*
X32597704Y-5007173D01*
X32452881Y-5126027D01*
X32452875Y-5126032D01*
X32449117Y-5129117D01*
X32446032Y-5132875D01*
X32446027Y-5132881D01*
X32327173Y-5277704D01*
X32327168Y-5277711D01*
X32324090Y-5281462D01*
X32321798Y-5285749D01*
X32321798Y-5285750D01*
X32233480Y-5450980D01*
X32233477Y-5450985D01*
X32231186Y-5455273D01*
X32229775Y-5459923D01*
X32229773Y-5459929D01*
X32175388Y-5639211D01*
X32175386Y-5639217D01*
X32173976Y-5643868D01*
X32154659Y-5840000D01*
X32173976Y-6036132D01*
X32175387Y-6040784D01*
X32175388Y-6040788D01*
X32182972Y-6065788D01*
X32231186Y-6224727D01*
X32324090Y-6398538D01*
X32327171Y-6402292D01*
X32327173Y-6402295D01*
X32367550Y-6451494D01*
X32449117Y-6550883D01*
X32601462Y-6675910D01*
X32775273Y-6768814D01*
X32963868Y-6826024D01*
X33160000Y-6845341D01*
X33356132Y-6826024D01*
X33544727Y-6768814D01*
X33718538Y-6675910D01*
X33870883Y-6550883D01*
X33995910Y-6398538D01*
X34088814Y-6224727D01*
X34146024Y-6036132D01*
X34165341Y-5840000D01*
X34146024Y-5643868D01*
X34088814Y-5455273D01*
X33995910Y-5281462D01*
X33870883Y-5129117D01*
X33752757Y-5032173D01*
X33722295Y-5007173D01*
X33722292Y-5007171D01*
X33718538Y-5004090D01*
X33714250Y-5001798D01*
X33714249Y-5001797D01*
X33639438Y-4961810D01*
X33601695Y-4926227D01*
X33587125Y-4876444D01*
X33599729Y-4826126D01*
X33636046Y-4789089D01*
X33686106Y-4775500D01*
X35173894Y-4775500D01*
X35223954Y-4789089D01*
X35260271Y-4826126D01*
X35272875Y-4876444D01*
X35258305Y-4926227D01*
X35220562Y-4961810D01*
X35145750Y-5001797D01*
X35145742Y-5001802D01*
X35141462Y-5004090D01*
X35137711Y-5007168D01*
X35137704Y-5007173D01*
X34992881Y-5126027D01*
X34992875Y-5126032D01*
X34989117Y-5129117D01*
X34986032Y-5132875D01*
X34986027Y-5132881D01*
X34867173Y-5277704D01*
X34867168Y-5277711D01*
X34864090Y-5281462D01*
X34861798Y-5285749D01*
X34861798Y-5285750D01*
X34773480Y-5450980D01*
X34773477Y-5450985D01*
X34771186Y-5455273D01*
X34769775Y-5459923D01*
X34769773Y-5459929D01*
X34715388Y-5639211D01*
X34715386Y-5639217D01*
X34713976Y-5643868D01*
X34694659Y-5840000D01*
X34713976Y-6036132D01*
X34715387Y-6040784D01*
X34715388Y-6040788D01*
X34722972Y-6065788D01*
X34771186Y-6224727D01*
X34864090Y-6398538D01*
X34867171Y-6402292D01*
X34867173Y-6402295D01*
X34907550Y-6451494D01*
X34989117Y-6550883D01*
X35141462Y-6675910D01*
X35315273Y-6768814D01*
X35503868Y-6826024D01*
X35700000Y-6845341D01*
X35896132Y-6826024D01*
X36084727Y-6768814D01*
X36258538Y-6675910D01*
X36410883Y-6550883D01*
X36535910Y-6398538D01*
X36628814Y-6224727D01*
X36686024Y-6036132D01*
X36705341Y-5840000D01*
X36686024Y-5643868D01*
X36628814Y-5455273D01*
X36535910Y-5281462D01*
X36410883Y-5129117D01*
X36292757Y-5032173D01*
X36262295Y-5007173D01*
X36262292Y-5007171D01*
X36258538Y-5004090D01*
X36254250Y-5001798D01*
X36254249Y-5001797D01*
X36179438Y-4961810D01*
X36141695Y-4926227D01*
X36127125Y-4876444D01*
X36139729Y-4826126D01*
X36176046Y-4789089D01*
X36226106Y-4775500D01*
X37244876Y-4775500D01*
X37282762Y-4783036D01*
X37314880Y-4804496D01*
X39645504Y-7135120D01*
X39666964Y-7167238D01*
X39674500Y-7205124D01*
X39674500Y-22244876D01*
X39666964Y-22282762D01*
X39645504Y-22314880D01*
X38614880Y-23345504D01*
X38582762Y-23366964D01*
X38544876Y-23374500D01*
X22402588Y-23374500D01*
X22361462Y-23365553D01*
X22327768Y-23340331D01*
X22302684Y-23311382D01*
X22302683Y-23311381D01*
X22298049Y-23306033D01*
X22189069Y-23235996D01*
X22182275Y-23234001D01*
X22071563Y-23201494D01*
X22064772Y-23199500D01*
X21935228Y-23199500D01*
X21928437Y-23201493D01*
X21928436Y-23201494D01*
X21817724Y-23234001D01*
X21817721Y-23234002D01*
X21810931Y-23235996D01*
X21804978Y-23239821D01*
X21804973Y-23239824D01*
X21707908Y-23302204D01*
X21707904Y-23302206D01*
X21701951Y-23306033D01*
X21697319Y-23311378D01*
X21697315Y-23311382D01*
X21621752Y-23398588D01*
X21621749Y-23398591D01*
X21617118Y-23403937D01*
X21614179Y-23410372D01*
X21614176Y-23410377D01*
X21566246Y-23515328D01*
X21566244Y-23515333D01*
X21563303Y-23521774D01*
X21562295Y-23528782D01*
X21562294Y-23528787D01*
X21545875Y-23642989D01*
X21544867Y-23650000D01*
X21545875Y-23657011D01*
X21562294Y-23771212D01*
X21562295Y-23771215D01*
X21563303Y-23778226D01*
X21566245Y-23784668D01*
X21566246Y-23784671D01*
X21602474Y-23863999D01*
X21617118Y-23896063D01*
X21701951Y-23993967D01*
X21810931Y-24064004D01*
X21935228Y-24100500D01*
X22057694Y-24100500D01*
X22064772Y-24100500D01*
X22189069Y-24064004D01*
X22298049Y-23993967D01*
X22327767Y-23959669D01*
X22361462Y-23934447D01*
X22402588Y-23925500D01*
X38663116Y-23925500D01*
X38682428Y-23927401D01*
X38700000Y-23930897D01*
X38727132Y-23925500D01*
X38727133Y-23925500D01*
X38807495Y-23909515D01*
X38849465Y-23881471D01*
X38875622Y-23863994D01*
X38875623Y-23863992D01*
X38898624Y-23848624D01*
X38908575Y-23833729D01*
X38920882Y-23818732D01*
X40118732Y-22620882D01*
X40133730Y-22608574D01*
X40145501Y-22600710D01*
X40195646Y-22584147D01*
X40247170Y-22595719D01*
X40285416Y-22632133D01*
X40299500Y-22683028D01*
X40299500Y-26997227D01*
X40299344Y-27002778D01*
X40282837Y-27296697D01*
X40281594Y-27307729D01*
X40232750Y-27595209D01*
X40230280Y-27606033D01*
X40149551Y-27886247D01*
X40145884Y-27896726D01*
X40034291Y-28166134D01*
X40029474Y-28176136D01*
X39888421Y-28431354D01*
X39882514Y-28440755D01*
X39713771Y-28678575D01*
X39706850Y-28687254D01*
X39512540Y-28904689D01*
X39504689Y-28912540D01*
X39287254Y-29106850D01*
X39278575Y-29113771D01*
X39040755Y-29282514D01*
X39031354Y-29288421D01*
X38776136Y-29429474D01*
X38766134Y-29434291D01*
X38496726Y-29545884D01*
X38486247Y-29549551D01*
X38206033Y-29630280D01*
X38195209Y-29632750D01*
X37907729Y-29681594D01*
X37896697Y-29682837D01*
X37602778Y-29699344D01*
X37597227Y-29699500D01*
X3002773Y-29699500D01*
X2997222Y-29699344D01*
X2703302Y-29682837D01*
X2692270Y-29681594D01*
X2404790Y-29632750D01*
X2393966Y-29630280D01*
X2113752Y-29549551D01*
X2103273Y-29545884D01*
X1833865Y-29434291D01*
X1823863Y-29429474D01*
X1568645Y-29288421D01*
X1559244Y-29282514D01*
X1321424Y-29113771D01*
X1312745Y-29106850D01*
X1211695Y-29016547D01*
X1095302Y-28912532D01*
X1087467Y-28904697D01*
X969745Y-28772966D01*
X893149Y-28687254D01*
X886228Y-28678575D01*
X717485Y-28440755D01*
X711578Y-28431354D01*
X570525Y-28176136D01*
X565708Y-28166134D01*
X454115Y-27896726D01*
X450448Y-27886247D01*
X369715Y-27606018D01*
X367252Y-27595224D01*
X318404Y-27307724D01*
X317162Y-27296697D01*
X300656Y-27002778D01*
X300500Y-26997227D01*
X300500Y-26427635D01*
X2885900Y-26427635D01*
X2885901Y-26431518D01*
X2886509Y-26435360D01*
X2886510Y-26435366D01*
X2892935Y-26475937D01*
X2900754Y-26525304D01*
X2958350Y-26638342D01*
X3048058Y-26728050D01*
X3161096Y-26785646D01*
X3254881Y-26800500D01*
X4517918Y-26800499D01*
X4611704Y-26785646D01*
X4724742Y-26728050D01*
X4814450Y-26638342D01*
X4872046Y-26525304D01*
X4886900Y-26431519D01*
X4886900Y-25850742D01*
X5385900Y-25850742D01*
X5386153Y-25853239D01*
X5386154Y-25853240D01*
X5400817Y-25997439D01*
X5400818Y-25997445D01*
X5401326Y-26002438D01*
X5402828Y-26007225D01*
X5402829Y-26007230D01*
X5432268Y-26101058D01*
X5462241Y-26196588D01*
X5464674Y-26200972D01*
X5464677Y-26200978D01*
X5558393Y-26369822D01*
X5560991Y-26374502D01*
X5564261Y-26378311D01*
X5690265Y-26525088D01*
X5690269Y-26525091D01*
X5693534Y-26528895D01*
X5854442Y-26653448D01*
X5945785Y-26698254D01*
X6032625Y-26740851D01*
X6032627Y-26740851D01*
X6037129Y-26743060D01*
X6234115Y-26794063D01*
X6437336Y-26804369D01*
X6638471Y-26773556D01*
X6829287Y-26702886D01*
X7001971Y-26595252D01*
X7149453Y-26455059D01*
X7265695Y-26288049D01*
X7345940Y-26101058D01*
X7386900Y-25901741D01*
X7386900Y-25848201D01*
X7886400Y-25848201D01*
X7886654Y-25853210D01*
X7901310Y-25997338D01*
X7903322Y-26007129D01*
X7961200Y-26191601D01*
X7965139Y-26200780D01*
X8058966Y-26369822D01*
X8064674Y-26378024D01*
X8190610Y-26524722D01*
X8197850Y-26531604D01*
X8350736Y-26649946D01*
X8359215Y-26655231D01*
X8532800Y-26740379D01*
X8542158Y-26743844D01*
X8729330Y-26792307D01*
X8739207Y-26793820D01*
X8772960Y-26795532D01*
X8783512Y-26793177D01*
X8786400Y-26782754D01*
X8786400Y-26782034D01*
X8986400Y-26782034D01*
X8989544Y-26792683D01*
X9000547Y-26794179D01*
X9133387Y-26773828D01*
X9143045Y-26771328D01*
X9324357Y-26704178D01*
X9333327Y-26699778D01*
X9497403Y-26597508D01*
X9505300Y-26591395D01*
X9645430Y-26458192D01*
X9650201Y-26452635D01*
X13849500Y-26452635D01*
X13849501Y-26456518D01*
X13850109Y-26460360D01*
X13850110Y-26460366D01*
X13861493Y-26532244D01*
X13864354Y-26550304D01*
X13921950Y-26663342D01*
X14011658Y-26753050D01*
X14124696Y-26810646D01*
X14218481Y-26825500D01*
X15481518Y-26825499D01*
X15575304Y-26810646D01*
X15688342Y-26753050D01*
X15778050Y-26663342D01*
X15835646Y-26550304D01*
X15850500Y-26456519D01*
X15850500Y-25875742D01*
X16349500Y-25875742D01*
X16349753Y-25878239D01*
X16349754Y-25878240D01*
X16364417Y-26022439D01*
X16364418Y-26022445D01*
X16364926Y-26027438D01*
X16366428Y-26032225D01*
X16366429Y-26032230D01*
X16424338Y-26216799D01*
X16425841Y-26221588D01*
X16428274Y-26225972D01*
X16428277Y-26225978D01*
X16512829Y-26378311D01*
X16524591Y-26399502D01*
X16527861Y-26403311D01*
X16653865Y-26550088D01*
X16653869Y-26550091D01*
X16657134Y-26553895D01*
X16818042Y-26678448D01*
X16871416Y-26704629D01*
X16996225Y-26765851D01*
X16996227Y-26765851D01*
X17000729Y-26768060D01*
X17197715Y-26819063D01*
X17400936Y-26829369D01*
X17602071Y-26798556D01*
X17792887Y-26727886D01*
X17965571Y-26620252D01*
X18113053Y-26480059D01*
X18149541Y-26427635D01*
X22299500Y-26427635D01*
X22299501Y-26431518D01*
X22300109Y-26435360D01*
X22300110Y-26435366D01*
X22306535Y-26475937D01*
X22314354Y-26525304D01*
X22371950Y-26638342D01*
X22461658Y-26728050D01*
X22574696Y-26785646D01*
X22668481Y-26800500D01*
X23931518Y-26800499D01*
X24025304Y-26785646D01*
X24138342Y-26728050D01*
X24228050Y-26638342D01*
X24285646Y-26525304D01*
X24300500Y-26431519D01*
X24300499Y-25848201D01*
X24800000Y-25848201D01*
X24800254Y-25853210D01*
X24814910Y-25997338D01*
X24816922Y-26007129D01*
X24874800Y-26191601D01*
X24878739Y-26200780D01*
X24972566Y-26369822D01*
X24978274Y-26378024D01*
X25104210Y-26524722D01*
X25111450Y-26531604D01*
X25264336Y-26649946D01*
X25272815Y-26655231D01*
X25446400Y-26740379D01*
X25455758Y-26743844D01*
X25642930Y-26792307D01*
X25652807Y-26793820D01*
X25686560Y-26795532D01*
X25697112Y-26793177D01*
X25700000Y-26782754D01*
X25700000Y-26782034D01*
X25900000Y-26782034D01*
X25903144Y-26792683D01*
X25914147Y-26794179D01*
X26046987Y-26773828D01*
X26056645Y-26771328D01*
X26237957Y-26704178D01*
X26246927Y-26699778D01*
X26411003Y-26597508D01*
X26418900Y-26591395D01*
X26559030Y-26458192D01*
X26565540Y-26450609D01*
X26581530Y-26427635D01*
X30745900Y-26427635D01*
X30745901Y-26431518D01*
X30746509Y-26435360D01*
X30746510Y-26435366D01*
X30752935Y-26475937D01*
X30760754Y-26525304D01*
X30818350Y-26638342D01*
X30908058Y-26728050D01*
X31021096Y-26785646D01*
X31114881Y-26800500D01*
X32377918Y-26800499D01*
X32471704Y-26785646D01*
X32584742Y-26728050D01*
X32674450Y-26638342D01*
X32732046Y-26525304D01*
X32746900Y-26431519D01*
X32746900Y-25850742D01*
X33245900Y-25850742D01*
X33246153Y-25853239D01*
X33246154Y-25853240D01*
X33260817Y-25997439D01*
X33260818Y-25997445D01*
X33261326Y-26002438D01*
X33262828Y-26007225D01*
X33262829Y-26007230D01*
X33292268Y-26101058D01*
X33322241Y-26196588D01*
X33324674Y-26200972D01*
X33324677Y-26200978D01*
X33418393Y-26369822D01*
X33420991Y-26374502D01*
X33424261Y-26378311D01*
X33550265Y-26525088D01*
X33550269Y-26525091D01*
X33553534Y-26528895D01*
X33714442Y-26653448D01*
X33805785Y-26698254D01*
X33892625Y-26740851D01*
X33892627Y-26740851D01*
X33897129Y-26743060D01*
X34094115Y-26794063D01*
X34297336Y-26804369D01*
X34498471Y-26773556D01*
X34689287Y-26702886D01*
X34861971Y-26595252D01*
X35009453Y-26455059D01*
X35125695Y-26288049D01*
X35205940Y-26101058D01*
X35246900Y-25901741D01*
X35246900Y-25848201D01*
X35746400Y-25848201D01*
X35746654Y-25853210D01*
X35761310Y-25997338D01*
X35763322Y-26007129D01*
X35821200Y-26191601D01*
X35825139Y-26200780D01*
X35918966Y-26369822D01*
X35924674Y-26378024D01*
X36050610Y-26524722D01*
X36057850Y-26531604D01*
X36210736Y-26649946D01*
X36219215Y-26655231D01*
X36392800Y-26740379D01*
X36402158Y-26743844D01*
X36589330Y-26792307D01*
X36599207Y-26793820D01*
X36632960Y-26795532D01*
X36643512Y-26793177D01*
X36646400Y-26782754D01*
X36646400Y-26782034D01*
X36846400Y-26782034D01*
X36849544Y-26792683D01*
X36860547Y-26794179D01*
X36993387Y-26773828D01*
X37003045Y-26771328D01*
X37184357Y-26704178D01*
X37193327Y-26699778D01*
X37357403Y-26597508D01*
X37365300Y-26591395D01*
X37505430Y-26458192D01*
X37511940Y-26450609D01*
X37622385Y-26291929D01*
X37627237Y-26283188D01*
X37703478Y-26105524D01*
X37706472Y-26095982D01*
X37745388Y-25906613D01*
X37746400Y-25896666D01*
X37746400Y-25788033D01*
X37743645Y-25777754D01*
X37733367Y-25775000D01*
X36859433Y-25775000D01*
X36849154Y-25777754D01*
X36846400Y-25788033D01*
X36846400Y-26782034D01*
X36646400Y-26782034D01*
X36646400Y-25788033D01*
X36643645Y-25777754D01*
X36633367Y-25775000D01*
X35759433Y-25775000D01*
X35749154Y-25777754D01*
X35746400Y-25788033D01*
X35746400Y-25848201D01*
X35246900Y-25848201D01*
X35246900Y-25561967D01*
X35746400Y-25561967D01*
X35749154Y-25572245D01*
X35759433Y-25575000D01*
X36633367Y-25575000D01*
X36643645Y-25572245D01*
X36646400Y-25561967D01*
X36846400Y-25561967D01*
X36849154Y-25572245D01*
X36859433Y-25575000D01*
X37733367Y-25575000D01*
X37743645Y-25572245D01*
X37746400Y-25561967D01*
X37746400Y-25501799D01*
X37746145Y-25496789D01*
X37731489Y-25352661D01*
X37729477Y-25342870D01*
X37671599Y-25158398D01*
X37667660Y-25149219D01*
X37573833Y-24980177D01*
X37568125Y-24971975D01*
X37442189Y-24825277D01*
X37434949Y-24818395D01*
X37282063Y-24700053D01*
X37273584Y-24694768D01*
X37099999Y-24609620D01*
X37090641Y-24606155D01*
X36903469Y-24557692D01*
X36893592Y-24556179D01*
X36859839Y-24554467D01*
X36849287Y-24556822D01*
X36846400Y-24567246D01*
X36846400Y-25561967D01*
X36646400Y-25561967D01*
X36646400Y-24567966D01*
X36643255Y-24557316D01*
X36632252Y-24555820D01*
X36499412Y-24576171D01*
X36489754Y-24578671D01*
X36308442Y-24645821D01*
X36299472Y-24650221D01*
X36135396Y-24752491D01*
X36127499Y-24758604D01*
X35987369Y-24891807D01*
X35980859Y-24899390D01*
X35870414Y-25058070D01*
X35865562Y-25066811D01*
X35789321Y-25244475D01*
X35786327Y-25254017D01*
X35747411Y-25443386D01*
X35746400Y-25453334D01*
X35746400Y-25561967D01*
X35246900Y-25561967D01*
X35246900Y-25499258D01*
X35231474Y-25347562D01*
X35170559Y-25153412D01*
X35159340Y-25133200D01*
X35103632Y-25032832D01*
X35071809Y-24975498D01*
X35006472Y-24899390D01*
X34942534Y-24824911D01*
X34942530Y-24824907D01*
X34939266Y-24821105D01*
X34778358Y-24696552D01*
X34733651Y-24674622D01*
X34600174Y-24609148D01*
X34600167Y-24609145D01*
X34595671Y-24606940D01*
X34552727Y-24595821D01*
X34403545Y-24557195D01*
X34403541Y-24557194D01*
X34398685Y-24555937D01*
X34393675Y-24555682D01*
X34393669Y-24555682D01*
X34200480Y-24545885D01*
X34200476Y-24545885D01*
X34195464Y-24545631D01*
X34190506Y-24546390D01*
X34190496Y-24546391D01*
X33999295Y-24575683D01*
X33999292Y-24575683D01*
X33994329Y-24576444D01*
X33989626Y-24578185D01*
X33989621Y-24578187D01*
X33808221Y-24645370D01*
X33808218Y-24645371D01*
X33803513Y-24647114D01*
X33799258Y-24649765D01*
X33799250Y-24649770D01*
X33635088Y-24752093D01*
X33635085Y-24752094D01*
X33630829Y-24754748D01*
X33627192Y-24758205D01*
X33627191Y-24758206D01*
X33486987Y-24891480D01*
X33486982Y-24891484D01*
X33483347Y-24894941D01*
X33480481Y-24899057D01*
X33480478Y-24899062D01*
X33369971Y-25057832D01*
X33369967Y-25057838D01*
X33367105Y-25061951D01*
X33365127Y-25066559D01*
X33365127Y-25066560D01*
X33288839Y-25244329D01*
X33288837Y-25244334D01*
X33286860Y-25248942D01*
X33285851Y-25253851D01*
X33285849Y-25253858D01*
X33246909Y-25443347D01*
X33245900Y-25448259D01*
X33245900Y-25850742D01*
X32746900Y-25850742D01*
X32746899Y-24918482D01*
X32732046Y-24824696D01*
X32674450Y-24711658D01*
X32584742Y-24621950D01*
X32471704Y-24564354D01*
X32464010Y-24563135D01*
X32464009Y-24563135D01*
X32381765Y-24550109D01*
X32381763Y-24550108D01*
X32377919Y-24549500D01*
X32374025Y-24549500D01*
X31118776Y-24549500D01*
X31118763Y-24549500D01*
X31114882Y-24549501D01*
X31111040Y-24550109D01*
X31111033Y-24550110D01*
X31028789Y-24563135D01*
X31028785Y-24563136D01*
X31021096Y-24564354D01*
X31014160Y-24567887D01*
X31014157Y-24567889D01*
X30914997Y-24618414D01*
X30914995Y-24618415D01*
X30908058Y-24621950D01*
X30902554Y-24627453D01*
X30902551Y-24627456D01*
X30823856Y-24706151D01*
X30823853Y-24706154D01*
X30818350Y-24711658D01*
X30814815Y-24718595D01*
X30814814Y-24718597D01*
X30764290Y-24817755D01*
X30764288Y-24817758D01*
X30760754Y-24824696D01*
X30759535Y-24832387D01*
X30759535Y-24832390D01*
X30746509Y-24914633D01*
X30745900Y-24918481D01*
X30745900Y-24922373D01*
X30745900Y-24922374D01*
X30745900Y-26427623D01*
X30745900Y-26427635D01*
X26581530Y-26427635D01*
X26675985Y-26291929D01*
X26680837Y-26283188D01*
X26757078Y-26105524D01*
X26760072Y-26095982D01*
X26798988Y-25906613D01*
X26800000Y-25896666D01*
X26800000Y-25763033D01*
X26797245Y-25752754D01*
X26786967Y-25750000D01*
X25913033Y-25750000D01*
X25902754Y-25752754D01*
X25900000Y-25763033D01*
X25900000Y-26782034D01*
X25700000Y-26782034D01*
X25700000Y-25763033D01*
X25697245Y-25752754D01*
X25686967Y-25750000D01*
X24813033Y-25750000D01*
X24802754Y-25752754D01*
X24800000Y-25763033D01*
X24800000Y-25848201D01*
X24300499Y-25848201D01*
X24300499Y-25536967D01*
X24800000Y-25536967D01*
X24802754Y-25547245D01*
X24813033Y-25550000D01*
X25686967Y-25550000D01*
X25697245Y-25547245D01*
X25700000Y-25536967D01*
X25900000Y-25536967D01*
X25902754Y-25547245D01*
X25913033Y-25550000D01*
X26786967Y-25550000D01*
X26797245Y-25547245D01*
X26800000Y-25536967D01*
X26800000Y-25451799D01*
X26799745Y-25446789D01*
X26785089Y-25302661D01*
X26783077Y-25292870D01*
X26725199Y-25108398D01*
X26721260Y-25099219D01*
X26627433Y-24930177D01*
X26621725Y-24921975D01*
X26495789Y-24775277D01*
X26488549Y-24768395D01*
X26335663Y-24650053D01*
X26327184Y-24644768D01*
X26153599Y-24559620D01*
X26144241Y-24556155D01*
X25957069Y-24507692D01*
X25947192Y-24506179D01*
X25913439Y-24504467D01*
X25902887Y-24506822D01*
X25900000Y-24517246D01*
X25900000Y-25536967D01*
X25700000Y-25536967D01*
X25700000Y-24517966D01*
X25696855Y-24507316D01*
X25685852Y-24505820D01*
X25553012Y-24526171D01*
X25543354Y-24528671D01*
X25362042Y-24595821D01*
X25353072Y-24600221D01*
X25188996Y-24702491D01*
X25181099Y-24708604D01*
X25040969Y-24841807D01*
X25034459Y-24849390D01*
X24924014Y-25008070D01*
X24919162Y-25016811D01*
X24842921Y-25194475D01*
X24839929Y-25204014D01*
X24801011Y-25393386D01*
X24800000Y-25403331D01*
X24800000Y-25536967D01*
X24300499Y-25536967D01*
X24300499Y-24868482D01*
X24285646Y-24774696D01*
X24228050Y-24661658D01*
X24138342Y-24571950D01*
X24025304Y-24514354D01*
X24017610Y-24513135D01*
X24017609Y-24513135D01*
X23935365Y-24500109D01*
X23935363Y-24500108D01*
X23931519Y-24499500D01*
X23927625Y-24499500D01*
X22672376Y-24499500D01*
X22672363Y-24499500D01*
X22668482Y-24499501D01*
X22664640Y-24500109D01*
X22664633Y-24500110D01*
X22582389Y-24513135D01*
X22582385Y-24513136D01*
X22574696Y-24514354D01*
X22567760Y-24517887D01*
X22567757Y-24517889D01*
X22468597Y-24568414D01*
X22468595Y-24568415D01*
X22461658Y-24571950D01*
X22456154Y-24577453D01*
X22456151Y-24577456D01*
X22377456Y-24656151D01*
X22377453Y-24656154D01*
X22371950Y-24661658D01*
X22368415Y-24668595D01*
X22368414Y-24668597D01*
X22317890Y-24767755D01*
X22317888Y-24767758D01*
X22314354Y-24774696D01*
X22313135Y-24782387D01*
X22313135Y-24782390D01*
X22300109Y-24864633D01*
X22299500Y-24868481D01*
X22299500Y-24872373D01*
X22299500Y-24872374D01*
X22299500Y-26427623D01*
X22299500Y-26427635D01*
X18149541Y-26427635D01*
X18229295Y-26313049D01*
X18309540Y-26126058D01*
X18350500Y-25926741D01*
X18350500Y-25474258D01*
X18335074Y-25322562D01*
X18274159Y-25128412D01*
X18263050Y-25108398D01*
X18177846Y-24954889D01*
X18175409Y-24950498D01*
X18123158Y-24889633D01*
X18046134Y-24799911D01*
X18046130Y-24799907D01*
X18042866Y-24796105D01*
X17881958Y-24671552D01*
X17838472Y-24650221D01*
X17703774Y-24584148D01*
X17703767Y-24584145D01*
X17699271Y-24581940D01*
X17660687Y-24571950D01*
X17507145Y-24532195D01*
X17507141Y-24532194D01*
X17502285Y-24530937D01*
X17497275Y-24530682D01*
X17497269Y-24530682D01*
X17304080Y-24520885D01*
X17304076Y-24520885D01*
X17299064Y-24520631D01*
X17294106Y-24521390D01*
X17294096Y-24521391D01*
X17102895Y-24550683D01*
X17102892Y-24550683D01*
X17097929Y-24551444D01*
X17093226Y-24553185D01*
X17093221Y-24553187D01*
X16911821Y-24620370D01*
X16911818Y-24620371D01*
X16907113Y-24622114D01*
X16902858Y-24624765D01*
X16902850Y-24624770D01*
X16738688Y-24727093D01*
X16738685Y-24727094D01*
X16734429Y-24729748D01*
X16730792Y-24733205D01*
X16730791Y-24733206D01*
X16590587Y-24866480D01*
X16590582Y-24866484D01*
X16586947Y-24869941D01*
X16584081Y-24874057D01*
X16584078Y-24874062D01*
X16473571Y-25032832D01*
X16473567Y-25032838D01*
X16470705Y-25036951D01*
X16468727Y-25041559D01*
X16468727Y-25041560D01*
X16392439Y-25219329D01*
X16392437Y-25219334D01*
X16390460Y-25223942D01*
X16389451Y-25228851D01*
X16389449Y-25228858D01*
X16353595Y-25403331D01*
X16349500Y-25423259D01*
X16349500Y-25875742D01*
X15850500Y-25875742D01*
X15850499Y-24893482D01*
X15835646Y-24799696D01*
X15778050Y-24686658D01*
X15688342Y-24596950D01*
X15575304Y-24539354D01*
X15567610Y-24538135D01*
X15567609Y-24538135D01*
X15485365Y-24525109D01*
X15485363Y-24525108D01*
X15481519Y-24524500D01*
X15477625Y-24524500D01*
X14222376Y-24524500D01*
X14222363Y-24524500D01*
X14218482Y-24524501D01*
X14214640Y-24525109D01*
X14214633Y-24525110D01*
X14132389Y-24538135D01*
X14132385Y-24538136D01*
X14124696Y-24539354D01*
X14117760Y-24542887D01*
X14117757Y-24542889D01*
X14018597Y-24593414D01*
X14018595Y-24593415D01*
X14011658Y-24596950D01*
X14006154Y-24602453D01*
X14006151Y-24602456D01*
X13927456Y-24681151D01*
X13927453Y-24681154D01*
X13921950Y-24686658D01*
X13918415Y-24693595D01*
X13918414Y-24693597D01*
X13867890Y-24792755D01*
X13867888Y-24792758D01*
X13864354Y-24799696D01*
X13863135Y-24807387D01*
X13863135Y-24807390D01*
X13850109Y-24889633D01*
X13849500Y-24893481D01*
X13849500Y-24897373D01*
X13849500Y-24897374D01*
X13849500Y-26452623D01*
X13849500Y-26452635D01*
X9650201Y-26452635D01*
X9651940Y-26450609D01*
X9762385Y-26291929D01*
X9767237Y-26283188D01*
X9843478Y-26105524D01*
X9846472Y-26095982D01*
X9885388Y-25906613D01*
X9886400Y-25896666D01*
X9886400Y-25788033D01*
X9883645Y-25777754D01*
X9873367Y-25775000D01*
X8999433Y-25775000D01*
X8989154Y-25777754D01*
X8986400Y-25788033D01*
X8986400Y-26782034D01*
X8786400Y-26782034D01*
X8786400Y-25788033D01*
X8783645Y-25777754D01*
X8773367Y-25775000D01*
X7899433Y-25775000D01*
X7889154Y-25777754D01*
X7886400Y-25788033D01*
X7886400Y-25848201D01*
X7386900Y-25848201D01*
X7386900Y-25561967D01*
X7886400Y-25561967D01*
X7889154Y-25572245D01*
X7899433Y-25575000D01*
X8773367Y-25575000D01*
X8783645Y-25572245D01*
X8786400Y-25561967D01*
X8986400Y-25561967D01*
X8989154Y-25572245D01*
X8999433Y-25575000D01*
X9873367Y-25575000D01*
X9883645Y-25572245D01*
X9886400Y-25561967D01*
X9886400Y-25501799D01*
X9886145Y-25496789D01*
X9871489Y-25352661D01*
X9869477Y-25342870D01*
X9811599Y-25158398D01*
X9807660Y-25149219D01*
X9713833Y-24980177D01*
X9708125Y-24971975D01*
X9582189Y-24825277D01*
X9574949Y-24818395D01*
X9422063Y-24700053D01*
X9413584Y-24694768D01*
X9239999Y-24609620D01*
X9230641Y-24606155D01*
X9043469Y-24557692D01*
X9033592Y-24556179D01*
X8999839Y-24554467D01*
X8989287Y-24556822D01*
X8986400Y-24567246D01*
X8986400Y-25561967D01*
X8786400Y-25561967D01*
X8786400Y-24567966D01*
X8783255Y-24557316D01*
X8772252Y-24555820D01*
X8639412Y-24576171D01*
X8629754Y-24578671D01*
X8448442Y-24645821D01*
X8439472Y-24650221D01*
X8275396Y-24752491D01*
X8267499Y-24758604D01*
X8127369Y-24891807D01*
X8120859Y-24899390D01*
X8010414Y-25058070D01*
X8005562Y-25066811D01*
X7929321Y-25244475D01*
X7926327Y-25254017D01*
X7887411Y-25443386D01*
X7886400Y-25453334D01*
X7886400Y-25561967D01*
X7386900Y-25561967D01*
X7386900Y-25499258D01*
X7371474Y-25347562D01*
X7310559Y-25153412D01*
X7299340Y-25133200D01*
X7243632Y-25032832D01*
X7211809Y-24975498D01*
X7146472Y-24899390D01*
X7082534Y-24824911D01*
X7082530Y-24824907D01*
X7079266Y-24821105D01*
X6918358Y-24696552D01*
X6873651Y-24674622D01*
X6740174Y-24609148D01*
X6740167Y-24609145D01*
X6735671Y-24606940D01*
X6692727Y-24595821D01*
X6543545Y-24557195D01*
X6543541Y-24557194D01*
X6538685Y-24555937D01*
X6533675Y-24555682D01*
X6533669Y-24555682D01*
X6340480Y-24545885D01*
X6340476Y-24545885D01*
X6335464Y-24545631D01*
X6330506Y-24546390D01*
X6330496Y-24546391D01*
X6139295Y-24575683D01*
X6139292Y-24575683D01*
X6134329Y-24576444D01*
X6129626Y-24578185D01*
X6129621Y-24578187D01*
X5948221Y-24645370D01*
X5948218Y-24645371D01*
X5943513Y-24647114D01*
X5939258Y-24649765D01*
X5939250Y-24649770D01*
X5775088Y-24752093D01*
X5775085Y-24752094D01*
X5770829Y-24754748D01*
X5767192Y-24758205D01*
X5767191Y-24758206D01*
X5626987Y-24891480D01*
X5626982Y-24891484D01*
X5623347Y-24894941D01*
X5620481Y-24899057D01*
X5620478Y-24899062D01*
X5509971Y-25057832D01*
X5509967Y-25057838D01*
X5507105Y-25061951D01*
X5505127Y-25066559D01*
X5505127Y-25066560D01*
X5428839Y-25244329D01*
X5428837Y-25244334D01*
X5426860Y-25248942D01*
X5425851Y-25253851D01*
X5425849Y-25253858D01*
X5386909Y-25443347D01*
X5385900Y-25448259D01*
X5385900Y-25850742D01*
X4886900Y-25850742D01*
X4886899Y-24918482D01*
X4872046Y-24824696D01*
X4814450Y-24711658D01*
X4724742Y-24621950D01*
X4611704Y-24564354D01*
X4604010Y-24563135D01*
X4604009Y-24563135D01*
X4521765Y-24550109D01*
X4521763Y-24550108D01*
X4517919Y-24549500D01*
X4514025Y-24549500D01*
X3258776Y-24549500D01*
X3258763Y-24549500D01*
X3254882Y-24549501D01*
X3251040Y-24550109D01*
X3251033Y-24550110D01*
X3168789Y-24563135D01*
X3168785Y-24563136D01*
X3161096Y-24564354D01*
X3154160Y-24567887D01*
X3154157Y-24567889D01*
X3054997Y-24618414D01*
X3054995Y-24618415D01*
X3048058Y-24621950D01*
X3042554Y-24627453D01*
X3042551Y-24627456D01*
X2963856Y-24706151D01*
X2963853Y-24706154D01*
X2958350Y-24711658D01*
X2954815Y-24718595D01*
X2954814Y-24718597D01*
X2904290Y-24817755D01*
X2904288Y-24817758D01*
X2900754Y-24824696D01*
X2899535Y-24832387D01*
X2899535Y-24832390D01*
X2886509Y-24914633D01*
X2885900Y-24918481D01*
X2885900Y-24922373D01*
X2885900Y-24922374D01*
X2885900Y-26427623D01*
X2885900Y-26427635D01*
X300500Y-26427635D01*
X300500Y-18232346D01*
X310501Y-18200000D01*
X488837Y-18200000D01*
X497492Y-18218257D01*
X512294Y-18321212D01*
X512295Y-18321215D01*
X513303Y-18328226D01*
X516245Y-18334668D01*
X516246Y-18334671D01*
X548882Y-18406134D01*
X567118Y-18446063D01*
X651951Y-18543967D01*
X760931Y-18614004D01*
X885228Y-18650500D01*
X1007694Y-18650500D01*
X1014772Y-18650500D01*
X1139069Y-18614004D01*
X1248049Y-18543967D01*
X1332882Y-18446063D01*
X1386697Y-18328226D01*
X1405133Y-18200000D01*
X1386697Y-18071774D01*
X1365336Y-18025000D01*
X3744867Y-18025000D01*
X3745875Y-18032011D01*
X3762294Y-18146212D01*
X3762295Y-18146215D01*
X3763303Y-18153226D01*
X3766245Y-18159668D01*
X3766246Y-18159671D01*
X3785761Y-18202403D01*
X3817118Y-18271063D01*
X3901951Y-18368967D01*
X3907904Y-18372792D01*
X3913258Y-18377432D01*
X3912006Y-18378875D01*
X3937388Y-18406134D01*
X3949500Y-18453583D01*
X3949500Y-18865574D01*
X3947598Y-18884887D01*
X3944592Y-18900000D01*
X3946494Y-18909562D01*
X3962131Y-18988178D01*
X3962132Y-18988181D01*
X3964034Y-18997741D01*
X3983942Y-19027536D01*
X4019399Y-19080601D01*
X4032211Y-19089161D01*
X4047212Y-19101472D01*
X6148527Y-21202787D01*
X6160835Y-21217785D01*
X6169399Y-21230601D01*
X6222463Y-21266057D01*
X6252259Y-21285966D01*
X6350000Y-21305408D01*
X6365112Y-21302401D01*
X6384426Y-21300500D01*
X18825751Y-21300500D01*
X18866878Y-21309447D01*
X18900570Y-21334669D01*
X18951951Y-21393967D01*
X18957905Y-21397793D01*
X18957907Y-21397795D01*
X19045092Y-21453825D01*
X19060931Y-21464004D01*
X19185228Y-21500500D01*
X19307694Y-21500500D01*
X19314772Y-21500500D01*
X19439069Y-21464004D01*
X19548049Y-21393967D01*
X19632882Y-21296063D01*
X19686697Y-21178226D01*
X19705133Y-21050000D01*
X19686697Y-20921774D01*
X19632882Y-20803937D01*
X19548049Y-20706033D01*
X19439069Y-20635996D01*
X19432275Y-20634001D01*
X19321563Y-20601494D01*
X19314772Y-20599500D01*
X19185228Y-20599500D01*
X19178437Y-20601493D01*
X19178436Y-20601494D01*
X19067724Y-20634001D01*
X19067721Y-20634002D01*
X19060931Y-20635996D01*
X19054978Y-20639821D01*
X19054973Y-20639824D01*
X18957907Y-20702204D01*
X18957901Y-20702209D01*
X18951951Y-20706033D01*
X18947315Y-20711382D01*
X18947314Y-20711384D01*
X18900571Y-20765330D01*
X18866878Y-20790553D01*
X18825751Y-20799500D01*
X6494768Y-20799500D01*
X6456882Y-20791964D01*
X6424764Y-20770504D01*
X4479496Y-18825236D01*
X4458036Y-18793118D01*
X4450500Y-18755232D01*
X4450500Y-18453583D01*
X4462612Y-18406134D01*
X4487993Y-18378875D01*
X4486742Y-18377432D01*
X4492094Y-18372793D01*
X4498049Y-18368967D01*
X4582882Y-18271063D01*
X4636697Y-18153226D01*
X4655133Y-18025000D01*
X4636697Y-17896774D01*
X4582882Y-17778937D01*
X4498049Y-17681033D01*
X4389069Y-17610996D01*
X4382275Y-17609001D01*
X4271563Y-17576494D01*
X4264772Y-17574500D01*
X4135228Y-17574500D01*
X4128437Y-17576493D01*
X4128436Y-17576494D01*
X4017724Y-17609001D01*
X4017721Y-17609002D01*
X4010931Y-17610996D01*
X4004978Y-17614821D01*
X4004973Y-17614824D01*
X3907908Y-17677204D01*
X3907904Y-17677206D01*
X3901951Y-17681033D01*
X3897319Y-17686378D01*
X3897315Y-17686382D01*
X3821752Y-17773588D01*
X3821749Y-17773591D01*
X3817118Y-17778937D01*
X3814179Y-17785372D01*
X3814176Y-17785377D01*
X3766246Y-17890328D01*
X3766244Y-17890333D01*
X3763303Y-17896774D01*
X3762295Y-17903782D01*
X3762294Y-17903787D01*
X3755853Y-17948588D01*
X3744867Y-18025000D01*
X1365336Y-18025000D01*
X1332882Y-17953937D01*
X1248049Y-17856033D01*
X1242095Y-17852207D01*
X1236742Y-17847568D01*
X1237993Y-17846124D01*
X1212612Y-17818866D01*
X1200500Y-17771417D01*
X1200500Y-16637000D01*
X13594367Y-16637000D01*
X13595375Y-16644009D01*
X13595375Y-16644011D01*
X13611794Y-16758212D01*
X13611795Y-16758215D01*
X13612803Y-16765226D01*
X13666618Y-16883063D01*
X13751451Y-16980967D01*
X13860431Y-17051004D01*
X13984728Y-17087500D01*
X13991806Y-17087500D01*
X14104732Y-17087500D01*
X14142618Y-17095036D01*
X14174736Y-17116496D01*
X15161027Y-18102787D01*
X15173335Y-18117785D01*
X15181899Y-18130601D01*
X15264760Y-18185966D01*
X15337826Y-18200500D01*
X15337827Y-18200500D01*
X15347393Y-18202403D01*
X15362500Y-18205408D01*
X15372062Y-18203506D01*
X15372066Y-18203506D01*
X15377611Y-18202403D01*
X15396926Y-18200500D01*
X31015574Y-18200500D01*
X31034887Y-18202401D01*
X31050000Y-18205408D01*
X31147741Y-18185966D01*
X31177536Y-18166057D01*
X31230601Y-18130601D01*
X31239161Y-18117787D01*
X31251467Y-18102791D01*
X33687137Y-15667122D01*
X33731015Y-15641637D01*
X33781759Y-15641240D01*
X33794178Y-15644428D01*
X33811785Y-15648950D01*
X33811787Y-15648950D01*
X33817823Y-15650500D01*
X33841012Y-15650500D01*
X33856499Y-15651719D01*
X33879405Y-15655347D01*
X33926034Y-15650938D01*
X33935351Y-15650500D01*
X35594403Y-15650500D01*
X35634671Y-15659059D01*
X35667976Y-15683258D01*
X35688259Y-15718390D01*
X35689354Y-15725304D01*
X35692891Y-15732247D01*
X35692892Y-15732248D01*
X35719963Y-15785377D01*
X35746950Y-15838342D01*
X35836658Y-15928050D01*
X35949696Y-15985646D01*
X36043481Y-16000500D01*
X37606518Y-16000499D01*
X37700304Y-15985646D01*
X37813342Y-15928050D01*
X37903050Y-15838342D01*
X37960646Y-15725304D01*
X37975500Y-15631519D01*
X37975499Y-14368482D01*
X37960646Y-14274696D01*
X37903050Y-14161658D01*
X37813342Y-14071950D01*
X37700304Y-14014354D01*
X37692610Y-14013135D01*
X37692609Y-14013135D01*
X37610365Y-14000109D01*
X37610363Y-14000108D01*
X37606519Y-13999500D01*
X37602625Y-13999500D01*
X36047376Y-13999500D01*
X36047363Y-13999500D01*
X36043482Y-13999501D01*
X36039640Y-14000109D01*
X36039633Y-14000110D01*
X35957389Y-14013135D01*
X35957385Y-14013136D01*
X35949696Y-14014354D01*
X35942760Y-14017887D01*
X35942757Y-14017889D01*
X35843597Y-14068414D01*
X35843595Y-14068415D01*
X35836658Y-14071950D01*
X35831154Y-14077453D01*
X35831151Y-14077456D01*
X35752456Y-14156151D01*
X35752453Y-14156154D01*
X35746950Y-14161658D01*
X35743415Y-14168595D01*
X35743414Y-14168597D01*
X35692892Y-14267751D01*
X35692890Y-14267754D01*
X35689354Y-14274696D01*
X35688258Y-14281609D01*
X35667976Y-14316742D01*
X35634671Y-14340941D01*
X35594403Y-14349500D01*
X34210454Y-14349500D01*
X34172568Y-14341964D01*
X34140450Y-14320504D01*
X32434093Y-12614147D01*
X35680820Y-12614147D01*
X35701171Y-12746987D01*
X35703671Y-12756645D01*
X35770821Y-12937957D01*
X35775221Y-12946927D01*
X35877491Y-13111003D01*
X35883604Y-13118900D01*
X36016807Y-13259030D01*
X36024390Y-13265540D01*
X36183070Y-13375985D01*
X36191811Y-13380837D01*
X36369475Y-13457078D01*
X36379017Y-13460072D01*
X36568386Y-13498988D01*
X36578334Y-13500000D01*
X36711967Y-13500000D01*
X36722245Y-13497245D01*
X36725000Y-13486967D01*
X36925000Y-13486967D01*
X36927754Y-13497245D01*
X36938033Y-13500000D01*
X37023201Y-13500000D01*
X37028210Y-13499745D01*
X37172338Y-13485089D01*
X37182129Y-13483077D01*
X37366601Y-13425199D01*
X37375780Y-13421260D01*
X37544822Y-13327433D01*
X37553024Y-13321725D01*
X37699722Y-13195789D01*
X37706604Y-13188549D01*
X37824946Y-13035663D01*
X37830231Y-13027184D01*
X37915379Y-12853599D01*
X37918844Y-12844241D01*
X37967307Y-12657069D01*
X37968820Y-12647192D01*
X37970532Y-12613439D01*
X37968177Y-12602887D01*
X37957754Y-12600000D01*
X36938033Y-12600000D01*
X36927754Y-12602754D01*
X36925000Y-12613033D01*
X36925000Y-13486967D01*
X36725000Y-13486967D01*
X36725000Y-12613033D01*
X36722245Y-12602754D01*
X36711967Y-12600000D01*
X35692966Y-12600000D01*
X35682316Y-12603144D01*
X35680820Y-12614147D01*
X32434093Y-12614147D01*
X32206506Y-12386560D01*
X35679467Y-12386560D01*
X35681822Y-12397112D01*
X35692246Y-12400000D01*
X36711967Y-12400000D01*
X36722245Y-12397245D01*
X36725000Y-12386967D01*
X36925000Y-12386967D01*
X36927754Y-12397245D01*
X36938033Y-12400000D01*
X37957034Y-12400000D01*
X37967683Y-12396855D01*
X37969179Y-12385852D01*
X37948828Y-12253012D01*
X37946328Y-12243354D01*
X37879178Y-12062042D01*
X37874778Y-12053072D01*
X37772508Y-11888996D01*
X37766395Y-11881099D01*
X37633192Y-11740969D01*
X37625609Y-11734459D01*
X37466929Y-11624014D01*
X37458188Y-11619162D01*
X37280524Y-11542921D01*
X37270982Y-11539927D01*
X37081613Y-11501011D01*
X37071666Y-11500000D01*
X36938033Y-11500000D01*
X36927754Y-11502754D01*
X36925000Y-11513033D01*
X36925000Y-12386967D01*
X36725000Y-12386967D01*
X36725000Y-11513033D01*
X36722245Y-11502754D01*
X36711967Y-11500000D01*
X36626799Y-11500000D01*
X36621789Y-11500254D01*
X36477661Y-11514910D01*
X36467870Y-11516922D01*
X36283398Y-11574800D01*
X36274219Y-11578739D01*
X36105177Y-11672566D01*
X36096975Y-11678274D01*
X35950277Y-11804210D01*
X35943395Y-11811450D01*
X35825053Y-11964336D01*
X35819768Y-11972815D01*
X35734620Y-12146400D01*
X35731155Y-12155758D01*
X35682692Y-12342930D01*
X35681179Y-12352807D01*
X35679467Y-12386560D01*
X32206506Y-12386560D01*
X30517943Y-10697997D01*
X30511667Y-10691099D01*
X30508538Y-10687317D01*
X30505202Y-10682060D01*
X30453903Y-10633887D01*
X30451669Y-10631723D01*
X30433229Y-10613283D01*
X30431035Y-10611089D01*
X30426619Y-10607664D01*
X30419534Y-10601612D01*
X30389936Y-10573818D01*
X30389935Y-10573817D01*
X30385393Y-10569552D01*
X30365065Y-10558376D01*
X30352086Y-10549850D01*
X30338686Y-10539456D01*
X30333764Y-10535638D01*
X30290774Y-10517034D01*
X30282418Y-10512940D01*
X30246824Y-10493372D01*
X30246821Y-10493370D01*
X30241368Y-10490373D01*
X30235339Y-10488825D01*
X30235337Y-10488824D01*
X30218897Y-10484603D01*
X30204203Y-10479572D01*
X30188644Y-10472839D01*
X30188641Y-10472838D01*
X30182926Y-10470365D01*
X30176776Y-10469390D01*
X30176773Y-10469390D01*
X30136676Y-10463039D01*
X30127546Y-10461148D01*
X30088207Y-10451048D01*
X30088205Y-10451047D01*
X30082177Y-10449500D01*
X30075953Y-10449500D01*
X30058988Y-10449500D01*
X30043500Y-10448281D01*
X30026745Y-10445627D01*
X30026744Y-10445626D01*
X30020595Y-10444653D01*
X30014404Y-10445238D01*
X30014396Y-10445238D01*
X29973966Y-10449061D01*
X29964649Y-10449500D01*
X29048960Y-10449500D01*
X29001265Y-10437254D01*
X28965370Y-10403545D01*
X28950906Y-10359023D01*
X28950500Y-10359075D01*
X28935071Y-10236942D01*
X28874568Y-10084129D01*
X28777963Y-9951163D01*
X28651326Y-9846400D01*
X28574121Y-9810070D01*
X28508248Y-9779072D01*
X28508243Y-9779070D01*
X28502613Y-9776421D01*
X28496497Y-9775254D01*
X28496493Y-9775253D01*
X28347286Y-9746790D01*
X28347280Y-9746789D01*
X28341170Y-9745624D01*
X28334964Y-9746014D01*
X28334958Y-9746014D01*
X28183350Y-9755553D01*
X28183347Y-9755553D01*
X28177140Y-9755944D01*
X28171222Y-9757866D01*
X28171221Y-9757867D01*
X28026752Y-9804807D01*
X28026748Y-9804808D01*
X28020829Y-9806732D01*
X28015572Y-9810067D01*
X28015568Y-9810070D01*
X27887317Y-9891461D01*
X27887312Y-9891464D01*
X27882060Y-9894798D01*
X27877800Y-9899333D01*
X27877798Y-9899336D01*
X27773818Y-10010064D01*
X27769552Y-10014607D01*
X27766552Y-10020063D01*
X27766549Y-10020068D01*
X27693373Y-10153174D01*
X27693371Y-10153177D01*
X27690373Y-10158632D01*
X27688826Y-10164656D01*
X27688824Y-10164662D01*
X27651047Y-10311795D01*
X27651046Y-10311800D01*
X27649500Y-10317823D01*
X27649500Y-10324047D01*
X27649500Y-10968013D01*
X27649061Y-10977329D01*
X27648598Y-10982216D01*
X27647240Y-10988296D01*
X27647435Y-10994518D01*
X27647435Y-10994524D01*
X27649451Y-11058644D01*
X27649500Y-11061754D01*
X27649500Y-11740925D01*
X27649888Y-11744000D01*
X27649889Y-11744008D01*
X27658409Y-11811450D01*
X27664929Y-11863058D01*
X27667219Y-11868843D01*
X27667221Y-11868849D01*
X27723139Y-12010081D01*
X27723141Y-12010084D01*
X27725432Y-12015871D01*
X27822037Y-12148837D01*
X27948674Y-12253600D01*
X28097387Y-12323579D01*
X28258830Y-12354376D01*
X28422860Y-12344056D01*
X28579171Y-12293268D01*
X28717940Y-12205202D01*
X28830448Y-12085393D01*
X28909627Y-11941368D01*
X28938106Y-11830448D01*
X28939536Y-11824880D01*
X28959145Y-11786395D01*
X28993274Y-11759922D01*
X29035426Y-11750500D01*
X29689546Y-11750500D01*
X29727432Y-11758036D01*
X29759550Y-11779496D01*
X33242892Y-15262838D01*
X33268515Y-15307219D01*
X33268515Y-15358465D01*
X33242892Y-15402846D01*
X30975236Y-17670504D01*
X30943118Y-17691964D01*
X30905232Y-17699500D01*
X15507268Y-17699500D01*
X15469382Y-17691964D01*
X15437264Y-17670504D01*
X14526993Y-16760233D01*
X14503063Y-16721492D01*
X14499005Y-16676138D01*
X14503625Y-16644009D01*
X14504633Y-16637000D01*
X14486197Y-16508774D01*
X14432382Y-16390937D01*
X14347549Y-16293033D01*
X14321685Y-16276411D01*
X14244526Y-16226824D01*
X14244524Y-16226823D01*
X14238569Y-16222996D01*
X14231775Y-16221001D01*
X14121063Y-16188494D01*
X14114272Y-16186500D01*
X13984728Y-16186500D01*
X13977937Y-16188493D01*
X13977936Y-16188494D01*
X13867224Y-16221001D01*
X13867221Y-16221002D01*
X13860431Y-16222996D01*
X13854478Y-16226821D01*
X13854473Y-16226824D01*
X13757408Y-16289204D01*
X13757404Y-16289206D01*
X13751451Y-16293033D01*
X13746819Y-16298378D01*
X13746815Y-16298382D01*
X13671252Y-16385588D01*
X13671249Y-16385591D01*
X13666618Y-16390937D01*
X13663679Y-16397372D01*
X13663676Y-16397377D01*
X13615746Y-16502328D01*
X13615744Y-16502333D01*
X13612803Y-16508774D01*
X13611795Y-16515782D01*
X13611794Y-16515787D01*
X13595375Y-16629989D01*
X13594367Y-16637000D01*
X1200500Y-16637000D01*
X1200500Y-7894768D01*
X1208036Y-7856882D01*
X1229496Y-7824764D01*
X4199764Y-4854496D01*
X4231882Y-4833036D01*
X4269768Y-4825500D01*
X4442123Y-4825500D01*
X4492183Y-4839089D01*
X4528500Y-4876127D01*
X4541104Y-4926444D01*
X4526534Y-4976228D01*
X4488791Y-5011810D01*
X4460749Y-5026798D01*
X4460744Y-5026800D01*
X4456462Y-5029090D01*
X4452711Y-5032168D01*
X4452704Y-5032173D01*
X4307881Y-5151027D01*
X4307875Y-5151032D01*
X4304117Y-5154117D01*
X4301032Y-5157875D01*
X4301027Y-5157881D01*
X4182173Y-5302704D01*
X4182168Y-5302711D01*
X4179090Y-5306462D01*
X4176798Y-5310749D01*
X4176798Y-5310750D01*
X4088480Y-5475980D01*
X4088477Y-5475985D01*
X4086186Y-5480273D01*
X4084775Y-5484923D01*
X4084773Y-5484929D01*
X4030388Y-5664211D01*
X4030386Y-5664217D01*
X4028976Y-5668868D01*
X4009659Y-5865000D01*
X4028976Y-6061132D01*
X4030387Y-6065784D01*
X4030388Y-6065788D01*
X4078602Y-6224727D01*
X4086186Y-6249727D01*
X4179090Y-6423538D01*
X4182171Y-6427292D01*
X4182173Y-6427295D01*
X4202033Y-6451494D01*
X4304117Y-6575883D01*
X4307881Y-6578972D01*
X4307882Y-6578973D01*
X4328306Y-6595735D01*
X4354995Y-6629935D01*
X4364500Y-6672262D01*
X4364500Y-8233013D01*
X4364061Y-8242329D01*
X4363598Y-8247216D01*
X4362240Y-8253296D01*
X4362435Y-8259518D01*
X4362435Y-8259524D01*
X4364451Y-8323644D01*
X4364500Y-8326754D01*
X4364500Y-8355925D01*
X4364888Y-8359001D01*
X4364890Y-8359024D01*
X4365201Y-8361485D01*
X4365931Y-8370766D01*
X4367207Y-8411347D01*
X4367403Y-8417569D01*
X4369137Y-8423539D01*
X4369139Y-8423549D01*
X4373872Y-8439841D01*
X4377021Y-8455045D01*
X4379147Y-8471875D01*
X4379148Y-8471881D01*
X4379929Y-8478058D01*
X4397169Y-8521602D01*
X4400189Y-8530423D01*
X4413256Y-8575398D01*
X4416424Y-8580755D01*
X4416426Y-8580759D01*
X4425061Y-8595360D01*
X4431894Y-8609308D01*
X4438137Y-8625077D01*
X4438140Y-8625083D01*
X4440432Y-8630871D01*
X4444090Y-8635906D01*
X4444094Y-8635913D01*
X4467960Y-8668762D01*
X4473076Y-8676550D01*
X4496919Y-8716865D01*
X4501317Y-8721263D01*
X4513318Y-8733264D01*
X4523407Y-8745077D01*
X4537037Y-8763837D01*
X4541834Y-8767805D01*
X4573116Y-8793684D01*
X4580015Y-8799961D01*
X7482058Y-11702004D01*
X7488334Y-11708902D01*
X7491460Y-11712680D01*
X7494798Y-11717940D01*
X7529471Y-11750500D01*
X7546095Y-11766111D01*
X7548328Y-11768274D01*
X7568965Y-11788911D01*
X7573382Y-11792337D01*
X7580466Y-11798388D01*
X7609152Y-11825326D01*
X7614607Y-11830448D01*
X7620059Y-11833445D01*
X7620063Y-11833448D01*
X7634925Y-11841618D01*
X7647912Y-11850149D01*
X7661311Y-11860543D01*
X7661318Y-11860547D01*
X7666236Y-11864362D01*
X7671952Y-11866835D01*
X7671953Y-11866836D01*
X7709207Y-11882957D01*
X7717585Y-11887060D01*
X7758632Y-11909627D01*
X7781101Y-11915395D01*
X7795787Y-11920423D01*
X7817073Y-11929635D01*
X7863319Y-11936959D01*
X7872449Y-11938850D01*
X7902440Y-11946550D01*
X7917823Y-11950500D01*
X7941017Y-11950500D01*
X7956504Y-11951719D01*
X7979404Y-11955346D01*
X8026025Y-11950939D01*
X8035343Y-11950500D01*
X9217823Y-11950500D01*
X10140925Y-11950500D01*
X10789546Y-11950500D01*
X10827432Y-11958036D01*
X10859550Y-11979496D01*
X12182058Y-13302004D01*
X12188334Y-13308902D01*
X12191460Y-13312680D01*
X12194798Y-13317940D01*
X12199338Y-13322203D01*
X12246095Y-13366111D01*
X12248328Y-13368274D01*
X12268966Y-13388912D01*
X12273383Y-13392338D01*
X12280466Y-13398388D01*
X12304822Y-13421260D01*
X12314607Y-13430448D01*
X12320065Y-13433448D01*
X12320066Y-13433449D01*
X12334926Y-13441618D01*
X12347914Y-13450149D01*
X12366237Y-13464363D01*
X12371955Y-13466837D01*
X12371958Y-13466839D01*
X12409217Y-13482962D01*
X12417594Y-13487066D01*
X12436110Y-13497245D01*
X12458632Y-13509627D01*
X12464670Y-13511177D01*
X12481088Y-13515392D01*
X12495790Y-13520425D01*
X12517074Y-13529636D01*
X12563323Y-13536960D01*
X12572457Y-13538852D01*
X12602703Y-13546617D01*
X12617823Y-13550500D01*
X12641012Y-13550500D01*
X12656499Y-13551719D01*
X12679405Y-13555347D01*
X12726036Y-13550939D01*
X12735354Y-13550500D01*
X14837820Y-13550500D01*
X14840925Y-13550500D01*
X14963058Y-13535071D01*
X15115871Y-13474568D01*
X15248837Y-13377963D01*
X15353600Y-13251326D01*
X15423579Y-13102613D01*
X15454376Y-12941170D01*
X15444056Y-12777140D01*
X15393268Y-12620829D01*
X15305202Y-12482060D01*
X15185393Y-12369552D01*
X15157788Y-12354376D01*
X15046825Y-12293373D01*
X15046824Y-12293372D01*
X15041368Y-12290373D01*
X15035340Y-12288825D01*
X15035337Y-12288824D01*
X14888204Y-12251047D01*
X14888200Y-12251046D01*
X14882177Y-12249500D01*
X14875953Y-12249500D01*
X13010454Y-12249500D01*
X12972568Y-12241964D01*
X12940450Y-12220504D01*
X11617943Y-10897997D01*
X11611667Y-10891099D01*
X11608538Y-10887317D01*
X11605202Y-10882060D01*
X11553903Y-10833887D01*
X11551669Y-10831723D01*
X11533229Y-10813283D01*
X11531035Y-10811089D01*
X11526619Y-10807664D01*
X11519534Y-10801612D01*
X11489936Y-10773818D01*
X11489935Y-10773817D01*
X11485393Y-10769552D01*
X11465065Y-10758376D01*
X11452086Y-10749850D01*
X11438686Y-10739456D01*
X11433764Y-10735638D01*
X11390774Y-10717034D01*
X11382418Y-10712940D01*
X11346824Y-10693372D01*
X11346821Y-10693370D01*
X11341368Y-10690373D01*
X11335339Y-10688825D01*
X11335337Y-10688824D01*
X11318897Y-10684603D01*
X11304203Y-10679572D01*
X11288644Y-10672839D01*
X11288641Y-10672838D01*
X11282926Y-10670365D01*
X11276776Y-10669390D01*
X11276773Y-10669390D01*
X11236676Y-10663039D01*
X11227546Y-10661148D01*
X11188207Y-10651048D01*
X11188205Y-10651047D01*
X11182177Y-10649500D01*
X11175953Y-10649500D01*
X11158988Y-10649500D01*
X11143500Y-10648281D01*
X11126745Y-10645627D01*
X11126744Y-10645626D01*
X11120595Y-10644653D01*
X11114404Y-10645238D01*
X11114396Y-10645238D01*
X11073966Y-10649061D01*
X11064649Y-10649500D01*
X10182177Y-10649500D01*
X8310454Y-10649500D01*
X8272568Y-10641964D01*
X8240450Y-10620504D01*
X5694496Y-8074550D01*
X5673036Y-8042432D01*
X5665500Y-8004546D01*
X5665500Y-7400000D01*
X8644867Y-7400000D01*
X8645875Y-7407011D01*
X8662294Y-7521212D01*
X8662295Y-7521215D01*
X8663303Y-7528226D01*
X8717118Y-7646063D01*
X8721752Y-7651411D01*
X8797313Y-7738615D01*
X8801951Y-7743967D01*
X8910931Y-7814004D01*
X9035228Y-7850500D01*
X9157694Y-7850500D01*
X9164772Y-7850500D01*
X9289069Y-7814004D01*
X9398049Y-7743967D01*
X9449429Y-7684669D01*
X9483122Y-7659447D01*
X9524249Y-7650500D01*
X13575751Y-7650500D01*
X13616878Y-7659447D01*
X13650570Y-7684669D01*
X13701951Y-7743967D01*
X13707905Y-7747793D01*
X13707907Y-7747795D01*
X13795092Y-7803825D01*
X13810931Y-7814004D01*
X13935228Y-7850500D01*
X14057694Y-7850500D01*
X14064772Y-7850500D01*
X14189069Y-7814004D01*
X14298049Y-7743967D01*
X14382882Y-7646063D01*
X14436697Y-7528226D01*
X14455133Y-7400000D01*
X14436697Y-7271774D01*
X14382882Y-7153937D01*
X14298049Y-7056033D01*
X14292091Y-7052204D01*
X14195026Y-6989824D01*
X14195024Y-6989823D01*
X14189069Y-6985996D01*
X14182275Y-6984001D01*
X14071563Y-6951494D01*
X14064772Y-6949500D01*
X13935228Y-6949500D01*
X13928437Y-6951493D01*
X13928436Y-6951494D01*
X13817724Y-6984001D01*
X13817721Y-6984002D01*
X13810931Y-6985996D01*
X13804978Y-6989821D01*
X13804973Y-6989824D01*
X13707907Y-7052204D01*
X13707901Y-7052209D01*
X13701951Y-7056033D01*
X13697315Y-7061382D01*
X13697314Y-7061384D01*
X13650571Y-7115330D01*
X13616878Y-7140553D01*
X13575751Y-7149500D01*
X9524249Y-7149500D01*
X9483122Y-7140553D01*
X9449429Y-7115330D01*
X9398049Y-7056033D01*
X9392095Y-7052206D01*
X9392092Y-7052204D01*
X9295026Y-6989824D01*
X9295024Y-6989823D01*
X9289069Y-6985996D01*
X9282275Y-6984001D01*
X9171563Y-6951494D01*
X9164772Y-6949500D01*
X9035228Y-6949500D01*
X9028437Y-6951493D01*
X9028436Y-6951494D01*
X8917724Y-6984001D01*
X8917721Y-6984002D01*
X8910931Y-6985996D01*
X8904978Y-6989821D01*
X8904973Y-6989824D01*
X8807908Y-7052204D01*
X8807904Y-7052206D01*
X8801951Y-7056033D01*
X8797319Y-7061378D01*
X8797315Y-7061382D01*
X8721752Y-7148588D01*
X8721749Y-7148591D01*
X8717118Y-7153937D01*
X8714179Y-7160372D01*
X8714176Y-7160377D01*
X8666246Y-7265328D01*
X8666244Y-7265333D01*
X8663303Y-7271774D01*
X8662295Y-7278782D01*
X8662294Y-7278787D01*
X8661957Y-7281134D01*
X8644867Y-7400000D01*
X5665500Y-7400000D01*
X5665500Y-6900000D01*
X22294867Y-6900000D01*
X22295875Y-6907011D01*
X22312294Y-7021212D01*
X22312295Y-7021215D01*
X22313303Y-7028226D01*
X22316245Y-7034668D01*
X22316246Y-7034671D01*
X22353082Y-7115330D01*
X22367118Y-7146063D01*
X22451951Y-7243967D01*
X22457904Y-7247792D01*
X22463258Y-7252432D01*
X22462006Y-7253875D01*
X22487388Y-7281134D01*
X22499500Y-7328583D01*
X22499500Y-11815574D01*
X22497598Y-11834887D01*
X22494592Y-11850000D01*
X22496494Y-11859562D01*
X22511566Y-11935337D01*
X22514034Y-11947741D01*
X22515878Y-11950500D01*
X22519454Y-11955852D01*
X22519455Y-11955854D01*
X22530788Y-11972815D01*
X22569399Y-12030601D01*
X22582211Y-12039161D01*
X22597212Y-12051472D01*
X26798529Y-16252790D01*
X26810837Y-16267788D01*
X26819399Y-16280601D01*
X26840316Y-16294577D01*
X26840317Y-16294578D01*
X26902260Y-16335966D01*
X27000000Y-16355409D01*
X27009567Y-16353506D01*
X27015116Y-16352403D01*
X27034431Y-16350500D01*
X30450253Y-16350500D01*
X30484849Y-16356742D01*
X30506537Y-16369609D01*
X30506951Y-16368967D01*
X30615931Y-16439004D01*
X30740228Y-16475500D01*
X30862694Y-16475500D01*
X30869772Y-16475500D01*
X30994069Y-16439004D01*
X31103049Y-16368967D01*
X31187882Y-16271063D01*
X31241697Y-16153226D01*
X31260133Y-16025000D01*
X31241697Y-15896774D01*
X31187882Y-15778937D01*
X31103049Y-15681033D01*
X31061564Y-15654372D01*
X31000026Y-15614824D01*
X31000024Y-15614823D01*
X30994069Y-15610996D01*
X30987275Y-15609001D01*
X30876563Y-15576494D01*
X30869772Y-15574500D01*
X30740228Y-15574500D01*
X30733437Y-15576493D01*
X30733436Y-15576494D01*
X30622724Y-15609001D01*
X30622721Y-15609002D01*
X30615931Y-15610996D01*
X30609978Y-15614821D01*
X30609973Y-15614824D01*
X30512908Y-15677204D01*
X30512904Y-15677206D01*
X30506951Y-15681033D01*
X30502319Y-15686378D01*
X30502315Y-15686382D01*
X30426755Y-15773585D01*
X30422118Y-15778937D01*
X30419177Y-15785374D01*
X30419174Y-15785381D01*
X30416322Y-15791627D01*
X30379792Y-15833784D01*
X30326269Y-15849500D01*
X27144769Y-15849500D01*
X27106883Y-15841964D01*
X27074765Y-15820504D01*
X23029496Y-11775236D01*
X23008036Y-11743118D01*
X23000500Y-11705232D01*
X23000500Y-7328583D01*
X23012612Y-7281134D01*
X23037993Y-7253875D01*
X23036742Y-7252432D01*
X23042094Y-7247793D01*
X23048049Y-7243967D01*
X23132882Y-7146063D01*
X23186697Y-7028226D01*
X23205133Y-6900000D01*
X23186697Y-6771774D01*
X23132882Y-6653937D01*
X23067926Y-6578973D01*
X23052684Y-6561382D01*
X23052683Y-6561381D01*
X23048049Y-6556033D01*
X22939069Y-6485996D01*
X22932275Y-6484001D01*
X22821563Y-6451494D01*
X22814772Y-6449500D01*
X22685228Y-6449500D01*
X22678437Y-6451493D01*
X22678436Y-6451494D01*
X22567724Y-6484001D01*
X22567721Y-6484002D01*
X22560931Y-6485996D01*
X22554978Y-6489821D01*
X22554973Y-6489824D01*
X22457908Y-6552204D01*
X22457904Y-6552206D01*
X22451951Y-6556033D01*
X22447319Y-6561378D01*
X22447315Y-6561382D01*
X22371752Y-6648588D01*
X22371749Y-6648591D01*
X22367118Y-6653937D01*
X22364179Y-6660372D01*
X22364176Y-6660377D01*
X22316246Y-6765328D01*
X22316244Y-6765333D01*
X22313303Y-6771774D01*
X22312295Y-6778782D01*
X22312294Y-6778787D01*
X22299200Y-6869864D01*
X22294867Y-6900000D01*
X5665500Y-6900000D01*
X5665500Y-6672262D01*
X5675005Y-6629935D01*
X5701694Y-6595735D01*
X5711481Y-6587701D01*
X5725883Y-6575883D01*
X5850910Y-6423538D01*
X5943814Y-6249727D01*
X6001024Y-6061132D01*
X6020341Y-5865000D01*
X6001024Y-5668868D01*
X5943814Y-5480273D01*
X5850910Y-5306462D01*
X5725883Y-5154117D01*
X5695421Y-5129117D01*
X5577295Y-5032173D01*
X5577292Y-5032171D01*
X5573538Y-5029090D01*
X5541208Y-5011809D01*
X5503466Y-4976228D01*
X5488896Y-4926444D01*
X5501500Y-4876127D01*
X5537817Y-4839089D01*
X5587877Y-4825500D01*
X6982123Y-4825500D01*
X7032183Y-4839089D01*
X7068500Y-4876127D01*
X7081104Y-4926444D01*
X7066534Y-4976228D01*
X7028791Y-5011810D01*
X7000749Y-5026798D01*
X7000744Y-5026800D01*
X6996462Y-5029090D01*
X6992711Y-5032168D01*
X6992704Y-5032173D01*
X6847881Y-5151027D01*
X6847875Y-5151032D01*
X6844117Y-5154117D01*
X6841032Y-5157875D01*
X6841027Y-5157881D01*
X6722173Y-5302704D01*
X6722168Y-5302711D01*
X6719090Y-5306462D01*
X6716798Y-5310749D01*
X6716798Y-5310750D01*
X6628480Y-5475980D01*
X6628477Y-5475985D01*
X6626186Y-5480273D01*
X6624775Y-5484923D01*
X6624773Y-5484929D01*
X6570388Y-5664211D01*
X6570386Y-5664217D01*
X6568976Y-5668868D01*
X6549659Y-5865000D01*
X6568976Y-6061132D01*
X6570387Y-6065784D01*
X6570388Y-6065788D01*
X6618602Y-6224727D01*
X6626186Y-6249727D01*
X6719090Y-6423538D01*
X6722171Y-6427292D01*
X6722173Y-6427295D01*
X6742033Y-6451494D01*
X6844117Y-6575883D01*
X6847881Y-6578972D01*
X6965999Y-6675910D01*
X6996462Y-6700910D01*
X7170273Y-6793814D01*
X7358868Y-6851024D01*
X7555000Y-6870341D01*
X7751132Y-6851024D01*
X7939727Y-6793814D01*
X8113538Y-6700910D01*
X8265883Y-6575883D01*
X8390910Y-6423538D01*
X8483814Y-6249727D01*
X8541024Y-6061132D01*
X8560341Y-5865000D01*
X9089659Y-5865000D01*
X9108976Y-6061132D01*
X9110387Y-6065784D01*
X9110388Y-6065788D01*
X9158602Y-6224727D01*
X9166186Y-6249727D01*
X9259090Y-6423538D01*
X9262171Y-6427292D01*
X9262173Y-6427295D01*
X9282033Y-6451494D01*
X9384117Y-6575883D01*
X9387881Y-6578972D01*
X9505999Y-6675910D01*
X9536462Y-6700910D01*
X9710273Y-6793814D01*
X9898868Y-6851024D01*
X10095000Y-6870341D01*
X10291132Y-6851024D01*
X10479727Y-6793814D01*
X10653538Y-6700910D01*
X10805883Y-6575883D01*
X10930910Y-6423538D01*
X11023814Y-6249727D01*
X11081024Y-6061132D01*
X11100341Y-5865000D01*
X11629659Y-5865000D01*
X11648976Y-6061132D01*
X11650387Y-6065784D01*
X11650388Y-6065788D01*
X11698602Y-6224727D01*
X11706186Y-6249727D01*
X11799090Y-6423538D01*
X11802171Y-6427292D01*
X11802173Y-6427295D01*
X11822033Y-6451494D01*
X11924117Y-6575883D01*
X11927881Y-6578972D01*
X12045999Y-6675910D01*
X12076462Y-6700910D01*
X12250273Y-6793814D01*
X12438868Y-6851024D01*
X12635000Y-6870341D01*
X12831132Y-6851024D01*
X13019727Y-6793814D01*
X13193538Y-6700910D01*
X13345883Y-6575883D01*
X13470910Y-6423538D01*
X13563814Y-6249727D01*
X13621024Y-6061132D01*
X13640341Y-5865000D01*
X14169659Y-5865000D01*
X14188976Y-6061132D01*
X14190387Y-6065784D01*
X14190388Y-6065788D01*
X14238602Y-6224727D01*
X14246186Y-6249727D01*
X14339090Y-6423538D01*
X14342171Y-6427292D01*
X14342173Y-6427295D01*
X14362033Y-6451494D01*
X14464117Y-6575883D01*
X14467881Y-6578972D01*
X14585999Y-6675910D01*
X14616462Y-6700910D01*
X14790273Y-6793814D01*
X14978868Y-6851024D01*
X15175000Y-6870341D01*
X15371132Y-6851024D01*
X15559727Y-6793814D01*
X15733538Y-6700910D01*
X15885883Y-6575883D01*
X16010910Y-6423538D01*
X16103814Y-6249727D01*
X16161024Y-6061132D01*
X16180341Y-5865000D01*
X16177879Y-5840000D01*
X24534659Y-5840000D01*
X24553976Y-6036132D01*
X24555387Y-6040784D01*
X24555388Y-6040788D01*
X24562972Y-6065788D01*
X24611186Y-6224727D01*
X24704090Y-6398538D01*
X24707171Y-6402292D01*
X24707173Y-6402295D01*
X24747550Y-6451494D01*
X24829117Y-6550883D01*
X24981462Y-6675910D01*
X25155273Y-6768814D01*
X25343868Y-6826024D01*
X25540000Y-6845341D01*
X25736132Y-6826024D01*
X25924727Y-6768814D01*
X26098538Y-6675910D01*
X26250883Y-6550883D01*
X26375910Y-6398538D01*
X26468814Y-6224727D01*
X26526024Y-6036132D01*
X26545341Y-5840000D01*
X27074659Y-5840000D01*
X27093976Y-6036132D01*
X27095387Y-6040784D01*
X27095388Y-6040788D01*
X27102972Y-6065788D01*
X27151186Y-6224727D01*
X27244090Y-6398538D01*
X27247171Y-6402292D01*
X27247173Y-6402295D01*
X27287550Y-6451494D01*
X27369117Y-6550883D01*
X27521462Y-6675910D01*
X27695273Y-6768814D01*
X27883868Y-6826024D01*
X28080000Y-6845341D01*
X28276132Y-6826024D01*
X28464727Y-6768814D01*
X28638538Y-6675910D01*
X28790883Y-6550883D01*
X28915910Y-6398538D01*
X29008814Y-6224727D01*
X29066024Y-6036132D01*
X29085341Y-5840000D01*
X29066024Y-5643868D01*
X29008814Y-5455273D01*
X28915910Y-5281462D01*
X28790883Y-5129117D01*
X28672757Y-5032173D01*
X28642295Y-5007173D01*
X28642292Y-5007171D01*
X28638538Y-5004090D01*
X28464727Y-4911186D01*
X28460072Y-4909774D01*
X28460070Y-4909773D01*
X28280788Y-4855388D01*
X28280784Y-4855387D01*
X28276132Y-4853976D01*
X28080000Y-4834659D01*
X28075157Y-4835136D01*
X27888710Y-4853499D01*
X27888708Y-4853499D01*
X27883868Y-4853976D01*
X27879217Y-4855386D01*
X27879211Y-4855388D01*
X27699929Y-4909773D01*
X27699923Y-4909775D01*
X27695273Y-4911186D01*
X27690985Y-4913477D01*
X27690980Y-4913480D01*
X27600562Y-4961810D01*
X27521462Y-5004090D01*
X27517711Y-5007168D01*
X27517704Y-5007173D01*
X27372881Y-5126027D01*
X27372875Y-5126032D01*
X27369117Y-5129117D01*
X27366032Y-5132875D01*
X27366027Y-5132881D01*
X27247173Y-5277704D01*
X27247168Y-5277711D01*
X27244090Y-5281462D01*
X27241798Y-5285749D01*
X27241798Y-5285750D01*
X27153480Y-5450980D01*
X27153477Y-5450985D01*
X27151186Y-5455273D01*
X27149775Y-5459923D01*
X27149773Y-5459929D01*
X27095388Y-5639211D01*
X27095386Y-5639217D01*
X27093976Y-5643868D01*
X27074659Y-5840000D01*
X26545341Y-5840000D01*
X26526024Y-5643868D01*
X26468814Y-5455273D01*
X26375910Y-5281462D01*
X26250883Y-5129117D01*
X26132757Y-5032173D01*
X26102295Y-5007173D01*
X26102292Y-5007171D01*
X26098538Y-5004090D01*
X25924727Y-4911186D01*
X25920072Y-4909774D01*
X25920070Y-4909773D01*
X25740788Y-4855388D01*
X25740784Y-4855387D01*
X25736132Y-4853976D01*
X25540000Y-4834659D01*
X25535157Y-4835136D01*
X25348710Y-4853499D01*
X25348708Y-4853499D01*
X25343868Y-4853976D01*
X25339217Y-4855386D01*
X25339211Y-4855388D01*
X25159929Y-4909773D01*
X25159923Y-4909775D01*
X25155273Y-4911186D01*
X25150985Y-4913477D01*
X25150980Y-4913480D01*
X25060562Y-4961810D01*
X24981462Y-5004090D01*
X24977711Y-5007168D01*
X24977704Y-5007173D01*
X24832881Y-5126027D01*
X24832875Y-5126032D01*
X24829117Y-5129117D01*
X24826032Y-5132875D01*
X24826027Y-5132881D01*
X24707173Y-5277704D01*
X24707168Y-5277711D01*
X24704090Y-5281462D01*
X24701798Y-5285749D01*
X24701798Y-5285750D01*
X24613480Y-5450980D01*
X24613477Y-5450985D01*
X24611186Y-5455273D01*
X24609775Y-5459923D01*
X24609773Y-5459929D01*
X24555388Y-5639211D01*
X24555386Y-5639217D01*
X24553976Y-5643868D01*
X24534659Y-5840000D01*
X16177879Y-5840000D01*
X16161024Y-5668868D01*
X16103814Y-5480273D01*
X16010910Y-5306462D01*
X15885883Y-5154117D01*
X15855421Y-5129117D01*
X15737295Y-5032173D01*
X15737292Y-5032171D01*
X15733538Y-5029090D01*
X15559727Y-4936186D01*
X15555072Y-4934774D01*
X15555070Y-4934773D01*
X15375788Y-4880388D01*
X15375784Y-4880387D01*
X15371132Y-4878976D01*
X15175000Y-4859659D01*
X15170157Y-4860136D01*
X14983710Y-4878499D01*
X14983708Y-4878499D01*
X14978868Y-4878976D01*
X14974217Y-4880386D01*
X14974211Y-4880388D01*
X14794929Y-4934773D01*
X14794923Y-4934775D01*
X14790273Y-4936186D01*
X14785985Y-4938477D01*
X14785980Y-4938480D01*
X14620750Y-5026798D01*
X14616462Y-5029090D01*
X14612711Y-5032168D01*
X14612704Y-5032173D01*
X14467881Y-5151027D01*
X14467875Y-5151032D01*
X14464117Y-5154117D01*
X14461032Y-5157875D01*
X14461027Y-5157881D01*
X14342173Y-5302704D01*
X14342168Y-5302711D01*
X14339090Y-5306462D01*
X14336798Y-5310749D01*
X14336798Y-5310750D01*
X14248480Y-5475980D01*
X14248477Y-5475985D01*
X14246186Y-5480273D01*
X14244775Y-5484923D01*
X14244773Y-5484929D01*
X14190388Y-5664211D01*
X14190386Y-5664217D01*
X14188976Y-5668868D01*
X14169659Y-5865000D01*
X13640341Y-5865000D01*
X13621024Y-5668868D01*
X13563814Y-5480273D01*
X13470910Y-5306462D01*
X13345883Y-5154117D01*
X13315421Y-5129117D01*
X13197295Y-5032173D01*
X13197292Y-5032171D01*
X13193538Y-5029090D01*
X13019727Y-4936186D01*
X13015072Y-4934774D01*
X13015070Y-4934773D01*
X12835788Y-4880388D01*
X12835784Y-4880387D01*
X12831132Y-4878976D01*
X12635000Y-4859659D01*
X12630157Y-4860136D01*
X12443710Y-4878499D01*
X12443708Y-4878499D01*
X12438868Y-4878976D01*
X12434217Y-4880386D01*
X12434211Y-4880388D01*
X12254929Y-4934773D01*
X12254923Y-4934775D01*
X12250273Y-4936186D01*
X12245985Y-4938477D01*
X12245980Y-4938480D01*
X12080750Y-5026798D01*
X12076462Y-5029090D01*
X12072711Y-5032168D01*
X12072704Y-5032173D01*
X11927881Y-5151027D01*
X11927875Y-5151032D01*
X11924117Y-5154117D01*
X11921032Y-5157875D01*
X11921027Y-5157881D01*
X11802173Y-5302704D01*
X11802168Y-5302711D01*
X11799090Y-5306462D01*
X11796798Y-5310749D01*
X11796798Y-5310750D01*
X11708480Y-5475980D01*
X11708477Y-5475985D01*
X11706186Y-5480273D01*
X11704775Y-5484923D01*
X11704773Y-5484929D01*
X11650388Y-5664211D01*
X11650386Y-5664217D01*
X11648976Y-5668868D01*
X11629659Y-5865000D01*
X11100341Y-5865000D01*
X11081024Y-5668868D01*
X11023814Y-5480273D01*
X10930910Y-5306462D01*
X10805883Y-5154117D01*
X10775421Y-5129117D01*
X10657295Y-5032173D01*
X10657292Y-5032171D01*
X10653538Y-5029090D01*
X10479727Y-4936186D01*
X10475072Y-4934774D01*
X10475070Y-4934773D01*
X10295788Y-4880388D01*
X10295784Y-4880387D01*
X10291132Y-4878976D01*
X10095000Y-4859659D01*
X10090157Y-4860136D01*
X9903710Y-4878499D01*
X9903708Y-4878499D01*
X9898868Y-4878976D01*
X9894217Y-4880386D01*
X9894211Y-4880388D01*
X9714929Y-4934773D01*
X9714923Y-4934775D01*
X9710273Y-4936186D01*
X9705985Y-4938477D01*
X9705980Y-4938480D01*
X9540750Y-5026798D01*
X9536462Y-5029090D01*
X9532711Y-5032168D01*
X9532704Y-5032173D01*
X9387881Y-5151027D01*
X9387875Y-5151032D01*
X9384117Y-5154117D01*
X9381032Y-5157875D01*
X9381027Y-5157881D01*
X9262173Y-5302704D01*
X9262168Y-5302711D01*
X9259090Y-5306462D01*
X9256798Y-5310749D01*
X9256798Y-5310750D01*
X9168480Y-5475980D01*
X9168477Y-5475985D01*
X9166186Y-5480273D01*
X9164775Y-5484923D01*
X9164773Y-5484929D01*
X9110388Y-5664211D01*
X9110386Y-5664217D01*
X9108976Y-5668868D01*
X9089659Y-5865000D01*
X8560341Y-5865000D01*
X8541024Y-5668868D01*
X8483814Y-5480273D01*
X8390910Y-5306462D01*
X8265883Y-5154117D01*
X8235421Y-5129117D01*
X8117295Y-5032173D01*
X8117292Y-5032171D01*
X8113538Y-5029090D01*
X8081208Y-5011809D01*
X8043466Y-4976228D01*
X8028896Y-4926444D01*
X8041500Y-4876127D01*
X8077817Y-4839089D01*
X8127877Y-4825500D01*
X8810574Y-4825500D01*
X8829887Y-4827401D01*
X8845000Y-4830408D01*
X8942741Y-4810966D01*
X8987742Y-4780897D01*
X9025601Y-4755601D01*
X9034161Y-4742787D01*
X9046467Y-4727791D01*
X9534651Y-4239607D01*
X9569780Y-4216958D01*
X9611128Y-4210825D01*
X9651317Y-4222301D01*
X9710273Y-4253814D01*
X9898868Y-4311024D01*
X10095000Y-4330341D01*
X10291132Y-4311024D01*
X10479727Y-4253814D01*
X10653538Y-4160910D01*
X10805883Y-4035883D01*
X10930910Y-3883538D01*
X11023814Y-3709727D01*
X11081024Y-3521132D01*
X11100341Y-3325000D01*
X11629659Y-3325000D01*
X11648976Y-3521132D01*
X11650387Y-3525784D01*
X11650388Y-3525788D01*
X11698602Y-3684727D01*
X11706186Y-3709727D01*
X11799090Y-3883538D01*
X11924117Y-4035883D01*
X11927881Y-4038972D01*
X12061915Y-4148972D01*
X12076462Y-4160910D01*
X12250273Y-4253814D01*
X12438868Y-4311024D01*
X12635000Y-4330341D01*
X12831132Y-4311024D01*
X13019727Y-4253814D01*
X13139451Y-4189820D01*
X14174500Y-4189820D01*
X14175446Y-4194579D01*
X14175447Y-4194582D01*
X14176155Y-4198141D01*
X14183233Y-4233722D01*
X14188648Y-4241827D01*
X14188649Y-4241828D01*
X14197601Y-4255226D01*
X14216496Y-4283504D01*
X14266278Y-4316767D01*
X14310180Y-4325500D01*
X16034962Y-4325500D01*
X16039820Y-4325500D01*
X16083722Y-4316767D01*
X16133504Y-4283504D01*
X16166767Y-4233722D01*
X16175500Y-4189820D01*
X16175500Y-3413791D01*
X24546368Y-3413791D01*
X24553991Y-3491190D01*
X24555881Y-3500690D01*
X24610237Y-3679878D01*
X24613944Y-3688827D01*
X24702215Y-3853971D01*
X24707590Y-3862015D01*
X24826382Y-4006763D01*
X24833236Y-4013617D01*
X24977984Y-4132409D01*
X24986028Y-4137784D01*
X25151172Y-4226055D01*
X25160121Y-4229762D01*
X25339309Y-4284118D01*
X25348809Y-4286008D01*
X25426208Y-4293631D01*
X25436990Y-4291669D01*
X25440000Y-4281131D01*
X25640000Y-4281131D01*
X25643009Y-4291669D01*
X25653791Y-4293631D01*
X25731190Y-4286008D01*
X25740690Y-4284118D01*
X25919878Y-4229762D01*
X25928827Y-4226055D01*
X26093971Y-4137784D01*
X26102015Y-4132409D01*
X26246763Y-4013617D01*
X26253617Y-4006763D01*
X26372409Y-3862015D01*
X26377784Y-3853971D01*
X26466055Y-3688827D01*
X26469762Y-3679878D01*
X26524118Y-3500690D01*
X26526008Y-3491190D01*
X26533631Y-3413791D01*
X26531669Y-3403009D01*
X26521131Y-3400000D01*
X25653033Y-3400000D01*
X25642754Y-3402754D01*
X25640000Y-3413033D01*
X25640000Y-4281131D01*
X25440000Y-4281131D01*
X25440000Y-3413033D01*
X25437245Y-3402754D01*
X25426967Y-3400000D01*
X24558869Y-3400000D01*
X24548330Y-3403009D01*
X24546368Y-3413791D01*
X16175500Y-3413791D01*
X16175500Y-3186208D01*
X24546368Y-3186208D01*
X24548330Y-3196990D01*
X24558869Y-3200000D01*
X25426967Y-3200000D01*
X25437245Y-3197245D01*
X25440000Y-3186967D01*
X25640000Y-3186967D01*
X25642754Y-3197245D01*
X25653033Y-3200000D01*
X26521131Y-3200000D01*
X26531669Y-3196990D01*
X26533631Y-3186208D01*
X26526008Y-3108809D01*
X26524118Y-3099309D01*
X26469762Y-2920121D01*
X26466055Y-2911172D01*
X26377784Y-2746028D01*
X26372409Y-2737984D01*
X26253617Y-2593236D01*
X26246763Y-2586382D01*
X26102015Y-2467590D01*
X26093971Y-2462215D01*
X25928827Y-2373944D01*
X25919878Y-2370237D01*
X25740690Y-2315881D01*
X25731190Y-2313991D01*
X25653791Y-2306368D01*
X25643009Y-2308330D01*
X25640000Y-2318869D01*
X25640000Y-3186967D01*
X25440000Y-3186967D01*
X25440000Y-2318869D01*
X25436990Y-2308330D01*
X25426208Y-2306368D01*
X25348809Y-2313991D01*
X25339309Y-2315881D01*
X25160121Y-2370237D01*
X25151172Y-2373944D01*
X24986028Y-2462215D01*
X24977984Y-2467590D01*
X24833236Y-2586382D01*
X24826382Y-2593236D01*
X24707590Y-2737984D01*
X24702215Y-2746028D01*
X24613944Y-2911172D01*
X24610237Y-2920121D01*
X24555881Y-3099309D01*
X24553991Y-3108809D01*
X24546368Y-3186208D01*
X16175500Y-3186208D01*
X16175500Y-2460180D01*
X16166767Y-2416278D01*
X16133504Y-2366496D01*
X16095168Y-2340881D01*
X16091828Y-2338649D01*
X16091827Y-2338648D01*
X16083722Y-2333233D01*
X16067432Y-2329992D01*
X16044582Y-2325447D01*
X16044579Y-2325446D01*
X16039820Y-2324500D01*
X14310180Y-2324500D01*
X14305421Y-2325446D01*
X14305417Y-2325447D01*
X14275839Y-2331331D01*
X14275838Y-2331331D01*
X14266278Y-2333233D01*
X14258174Y-2338647D01*
X14258171Y-2338649D01*
X14224605Y-2361077D01*
X14224602Y-2361079D01*
X14216496Y-2366496D01*
X14211079Y-2374602D01*
X14211077Y-2374605D01*
X14188649Y-2408171D01*
X14188647Y-2408174D01*
X14183233Y-2416278D01*
X14181331Y-2425838D01*
X14181331Y-2425839D01*
X14178507Y-2440038D01*
X14174500Y-2460180D01*
X14174500Y-4189820D01*
X13139451Y-4189820D01*
X13193538Y-4160910D01*
X13345883Y-4035883D01*
X13470910Y-3883538D01*
X13563814Y-3709727D01*
X13621024Y-3521132D01*
X13640341Y-3325000D01*
X13621024Y-3128868D01*
X13563814Y-2940273D01*
X13470910Y-2766462D01*
X13345883Y-2614117D01*
X13312088Y-2586382D01*
X13197295Y-2492173D01*
X13197292Y-2492171D01*
X13193538Y-2489090D01*
X13025562Y-2399305D01*
X13024019Y-2398480D01*
X13024017Y-2398479D01*
X13019727Y-2396186D01*
X13015072Y-2394774D01*
X13015070Y-2394773D01*
X12835788Y-2340388D01*
X12835784Y-2340387D01*
X12831132Y-2338976D01*
X12801697Y-2336077D01*
X12733066Y-2329317D01*
X12635000Y-2319659D01*
X12630157Y-2320136D01*
X12443710Y-2338499D01*
X12443708Y-2338499D01*
X12438868Y-2338976D01*
X12434217Y-2340386D01*
X12434211Y-2340388D01*
X12254929Y-2394773D01*
X12254923Y-2394775D01*
X12250273Y-2396186D01*
X12245985Y-2398477D01*
X12245980Y-2398480D01*
X12087893Y-2482980D01*
X12076462Y-2489090D01*
X12072711Y-2492168D01*
X12072704Y-2492173D01*
X11927881Y-2611027D01*
X11927875Y-2611032D01*
X11924117Y-2614117D01*
X11921032Y-2617875D01*
X11921027Y-2617881D01*
X11802173Y-2762704D01*
X11802168Y-2762711D01*
X11799090Y-2766462D01*
X11796798Y-2770749D01*
X11796798Y-2770750D01*
X11708480Y-2935980D01*
X11708477Y-2935985D01*
X11706186Y-2940273D01*
X11704775Y-2944923D01*
X11704773Y-2944929D01*
X11650388Y-3124211D01*
X11650386Y-3124217D01*
X11648976Y-3128868D01*
X11648499Y-3133708D01*
X11648499Y-3133710D01*
X11641970Y-3200000D01*
X11629659Y-3325000D01*
X11100341Y-3325000D01*
X11081024Y-3128868D01*
X11023814Y-2940273D01*
X10930910Y-2766462D01*
X10805883Y-2614117D01*
X10772088Y-2586382D01*
X10657295Y-2492173D01*
X10657292Y-2492171D01*
X10653538Y-2489090D01*
X10485562Y-2399305D01*
X10484019Y-2398480D01*
X10484017Y-2398479D01*
X10479727Y-2396186D01*
X10475072Y-2394774D01*
X10475070Y-2394773D01*
X10295788Y-2340388D01*
X10295784Y-2340387D01*
X10291132Y-2338976D01*
X10261697Y-2336077D01*
X10193066Y-2329317D01*
X10095000Y-2319659D01*
X10090157Y-2320136D01*
X9903710Y-2338499D01*
X9903708Y-2338499D01*
X9898868Y-2338976D01*
X9894217Y-2340386D01*
X9894211Y-2340388D01*
X9714929Y-2394773D01*
X9714923Y-2394775D01*
X9710273Y-2396186D01*
X9705985Y-2398477D01*
X9705980Y-2398480D01*
X9547893Y-2482980D01*
X9536462Y-2489090D01*
X9532711Y-2492168D01*
X9532704Y-2492173D01*
X9387881Y-2611027D01*
X9387875Y-2611032D01*
X9384117Y-2614117D01*
X9381032Y-2617875D01*
X9381027Y-2617881D01*
X9262173Y-2762704D01*
X9262168Y-2762711D01*
X9259090Y-2766462D01*
X9256798Y-2770749D01*
X9256798Y-2770750D01*
X9168480Y-2935980D01*
X9168477Y-2935985D01*
X9166186Y-2940273D01*
X9164775Y-2944923D01*
X9164773Y-2944929D01*
X9110388Y-3124211D01*
X9110386Y-3124217D01*
X9108976Y-3128868D01*
X9108499Y-3133708D01*
X9108499Y-3133710D01*
X9101970Y-3200000D01*
X9089659Y-3325000D01*
X9108976Y-3521132D01*
X9110387Y-3525784D01*
X9110388Y-3525788D01*
X9158602Y-3684727D01*
X9166186Y-3709727D01*
X9168479Y-3714018D01*
X9168480Y-3714019D01*
X9197695Y-3768677D01*
X9209173Y-3808870D01*
X9203040Y-3850218D01*
X9180389Y-3885348D01*
X8770236Y-4295503D01*
X8738118Y-4316964D01*
X8700232Y-4324500D01*
X8190889Y-4324500D01*
X8133884Y-4306441D01*
X8097676Y-4258852D01*
X8095475Y-4199096D01*
X8128084Y-4148972D01*
X8265883Y-4035883D01*
X8390910Y-3883538D01*
X8483814Y-3709727D01*
X8541024Y-3521132D01*
X8560341Y-3325000D01*
X8541024Y-3128868D01*
X8483814Y-2940273D01*
X8390910Y-2766462D01*
X8265883Y-2614117D01*
X8232088Y-2586382D01*
X8117295Y-2492173D01*
X8117292Y-2492171D01*
X8113538Y-2489090D01*
X7945562Y-2399305D01*
X7944019Y-2398480D01*
X7944017Y-2398479D01*
X7939727Y-2396186D01*
X7935072Y-2394774D01*
X7935070Y-2394773D01*
X7755788Y-2340388D01*
X7755784Y-2340387D01*
X7751132Y-2338976D01*
X7721697Y-2336077D01*
X7653066Y-2329317D01*
X7555000Y-2319659D01*
X7550157Y-2320136D01*
X7363710Y-2338499D01*
X7363708Y-2338499D01*
X7358868Y-2338976D01*
X7354217Y-2340386D01*
X7354211Y-2340388D01*
X7174929Y-2394773D01*
X7174923Y-2394775D01*
X7170273Y-2396186D01*
X7165985Y-2398477D01*
X7165980Y-2398480D01*
X7007893Y-2482980D01*
X6996462Y-2489090D01*
X6992711Y-2492168D01*
X6992704Y-2492173D01*
X6847881Y-2611027D01*
X6847875Y-2611032D01*
X6844117Y-2614117D01*
X6841032Y-2617875D01*
X6841027Y-2617881D01*
X6722173Y-2762704D01*
X6722168Y-2762711D01*
X6719090Y-2766462D01*
X6716798Y-2770749D01*
X6716798Y-2770750D01*
X6628480Y-2935980D01*
X6628477Y-2935985D01*
X6626186Y-2940273D01*
X6624775Y-2944923D01*
X6624773Y-2944929D01*
X6570388Y-3124211D01*
X6570386Y-3124217D01*
X6568976Y-3128868D01*
X6568499Y-3133708D01*
X6568499Y-3133710D01*
X6561970Y-3200000D01*
X6549659Y-3325000D01*
X6568976Y-3521132D01*
X6570387Y-3525784D01*
X6570388Y-3525788D01*
X6618602Y-3684727D01*
X6626186Y-3709727D01*
X6719090Y-3883538D01*
X6844117Y-4035883D01*
X6968791Y-4138201D01*
X6981916Y-4148972D01*
X7014525Y-4199096D01*
X7012324Y-4258852D01*
X6976116Y-4306441D01*
X6919111Y-4324500D01*
X5650102Y-4324500D01*
X5593097Y-4306441D01*
X5556889Y-4258852D01*
X5554688Y-4199096D01*
X5587297Y-4148972D01*
X5721763Y-4038617D01*
X5728617Y-4031763D01*
X5847409Y-3887015D01*
X5852784Y-3878971D01*
X5941055Y-3713827D01*
X5944762Y-3704878D01*
X5999118Y-3525690D01*
X6001008Y-3516190D01*
X6008631Y-3438791D01*
X6006669Y-3428009D01*
X5996131Y-3425000D01*
X4033869Y-3425000D01*
X4023330Y-3428009D01*
X4021368Y-3438791D01*
X4028991Y-3516190D01*
X4030881Y-3525690D01*
X4085237Y-3704878D01*
X4088944Y-3713827D01*
X4177215Y-3878971D01*
X4182590Y-3887015D01*
X4301382Y-4031763D01*
X4308236Y-4038617D01*
X4442703Y-4148972D01*
X4475312Y-4199096D01*
X4473111Y-4258852D01*
X4436903Y-4306441D01*
X4379898Y-4324500D01*
X4159426Y-4324500D01*
X4140112Y-4322598D01*
X4134562Y-4321494D01*
X4125000Y-4319592D01*
X4115438Y-4321494D01*
X4036819Y-4337132D01*
X4036817Y-4337132D01*
X4027259Y-4339034D01*
X4019156Y-4344447D01*
X4019153Y-4344449D01*
X3997463Y-4358942D01*
X3997376Y-4359000D01*
X3952509Y-4388979D01*
X3952506Y-4388981D01*
X3944399Y-4394399D01*
X3938981Y-4402506D01*
X3938979Y-4402509D01*
X3935837Y-4407212D01*
X3923529Y-4422209D01*
X797209Y-7548529D01*
X782212Y-7560837D01*
X777509Y-7563979D01*
X777506Y-7563981D01*
X769399Y-7569399D01*
X763981Y-7577506D01*
X763979Y-7577509D01*
X733942Y-7622463D01*
X719449Y-7644153D01*
X719447Y-7644156D01*
X714034Y-7652259D01*
X694592Y-7750000D01*
X696494Y-7759562D01*
X697598Y-7765112D01*
X699500Y-7784426D01*
X699500Y-17771417D01*
X687388Y-17818866D01*
X662006Y-17846124D01*
X663258Y-17847568D01*
X657902Y-17852208D01*
X651951Y-17856033D01*
X647320Y-17861376D01*
X647317Y-17861380D01*
X571752Y-17948588D01*
X571749Y-17948591D01*
X567118Y-17953937D01*
X564179Y-17960372D01*
X564176Y-17960377D01*
X516246Y-18065328D01*
X516244Y-18065333D01*
X513303Y-18071774D01*
X512295Y-18078782D01*
X512294Y-18078787D01*
X497492Y-18181743D01*
X488837Y-18200000D01*
X310501Y-18200000D01*
X300500Y-18167654D01*
X300500Y-3211208D01*
X4021368Y-3211208D01*
X4023330Y-3221990D01*
X4033869Y-3225000D01*
X4901967Y-3225000D01*
X4912245Y-3222245D01*
X4915000Y-3211967D01*
X5115000Y-3211967D01*
X5117754Y-3222245D01*
X5128033Y-3225000D01*
X5996131Y-3225000D01*
X6006669Y-3221990D01*
X6008631Y-3211208D01*
X6001008Y-3133809D01*
X5999118Y-3124309D01*
X5944762Y-2945121D01*
X5941055Y-2936172D01*
X5852784Y-2771028D01*
X5847409Y-2762984D01*
X5728617Y-2618236D01*
X5721763Y-2611382D01*
X5577015Y-2492590D01*
X5568971Y-2487215D01*
X5403827Y-2398944D01*
X5394878Y-2395237D01*
X5215690Y-2340881D01*
X5206190Y-2338991D01*
X5128791Y-2331368D01*
X5118009Y-2333330D01*
X5115000Y-2343869D01*
X5115000Y-3211967D01*
X4915000Y-3211967D01*
X4915000Y-2343869D01*
X4911990Y-2333330D01*
X4901208Y-2331368D01*
X4823809Y-2338991D01*
X4814309Y-2340881D01*
X4635121Y-2395237D01*
X4626172Y-2398944D01*
X4461028Y-2487215D01*
X4452984Y-2492590D01*
X4308236Y-2611382D01*
X4301382Y-2618236D01*
X4182590Y-2762984D01*
X4177215Y-2771028D01*
X4088944Y-2936172D01*
X4085237Y-2945121D01*
X4030881Y-3124309D01*
X4028991Y-3133809D01*
X4021368Y-3211208D01*
X300500Y-3211208D01*
X300500Y-3002773D01*
X300656Y-2997222D01*
X303854Y-2940273D01*
X317162Y-2703296D01*
X318405Y-2692270D01*
X331045Y-2617881D01*
X367251Y-2404780D01*
X369720Y-2393964D01*
X370494Y-2391278D01*
X450450Y-2113742D01*
X454108Y-2103286D01*
X565710Y-1833857D01*
X570524Y-1823862D01*
X711582Y-1568636D01*
X717474Y-1559257D01*
X886245Y-1321398D01*
X893130Y-1312764D01*
X1087475Y-1095293D01*
X1095293Y-1087475D01*
X1312764Y-893130D01*
X1321398Y-886245D01*
X1559257Y-717474D01*
X1568636Y-711582D01*
X1823868Y-570520D01*
X1833857Y-565710D01*
X2103286Y-454108D01*
X2113742Y-450450D01*
X2393970Y-369718D01*
X2404780Y-367251D01*
X2692277Y-318404D01*
X2703296Y-317162D01*
X2997222Y-300655D01*
X3002773Y-300500D01*
X3047594Y-300500D01*
X37552405Y-300500D01*
X37597227Y-300500D01*
X37602777Y-300655D01*
G37*
%TD.AperFunction*%
%TD*%
M02*
